<?xml version="1.0" encoding="utf-8"?>
<!-- Generator: Adobe Illustrator 18.1.1, SVG Export Plug-In . SVG Version: 6.00 Build 0)  -->
<svg version="1.1" id="Layer_1" xmlns="http://www.w3.org/2000/svg" xmlns:xlink="http://www.w3.org/1999/xlink" x="0px" y="0px"
	 viewBox="48.9 241.2 221.4 175.5" enable-background="new 48.9 241.2 221.4 175.5" xml:space="preserve">
<g>
	<g>
		<defs>
			<rect id="SVGID_1_" x="48.9" y="241.2" width="221.4" height="175.5"/>
		</defs>
		<clipPath id="SVGID_2_">
			<use xlink:href="#SVGID_1_"  overflow="visible"/>
		</clipPath>
		<g clip-path="url(#SVGID_2_)">
			
				<linearGradient id="SVGID_3_" gradientUnits="userSpaceOnUse" x1="-892.0565" y1="-1465.8387" x2="-590.6809" y2="-1465.8387" gradientTransform="matrix(0 0.2723 0.2723 0 541.124 437.5154)">
				<stop  offset="0" style="stop-color:#A93024"/>
				<stop  offset="1" style="stop-color:#A03022"/>
			</linearGradient>
			<path fill="none" stroke="url(#SVGID_3_)" stroke-width="0.5" stroke-miterlimit="10" d="M283.8,197.1c0,0-121.4-11-191.7,13.6
				s-92,65.9-92,65.9"/>
			
				<linearGradient id="SVGID_4_" gradientUnits="userSpaceOnUse" x1="-897.4046" y1="-1475.0352" x2="-582.8637" y2="-1475.0352" gradientTransform="matrix(0 0.2723 0.2723 0 541.124 437.5154)">
				<stop  offset="0" style="stop-color:#A93024"/>
				<stop  offset="1" style="stop-color:#A03022"/>
			</linearGradient>
			<path fill="none" stroke="url(#SVGID_4_)" stroke-width="0.5" stroke-miterlimit="10" d="M278.4,194.6c0,0-112-8.9-178.7,17.7
				c-70.3,28-96.3,62-99.1,66.4"/>
			
				<linearGradient id="SVGID_5_" gradientUnits="userSpaceOnUse" x1="-903.2781" y1="-1484.2871" x2="-574.664" y2="-1484.2871" gradientTransform="matrix(0 0.2723 0.2723 0 541.124 437.5154)">
				<stop  offset="0" style="stop-color:#A93024"/>
				<stop  offset="1" style="stop-color:#A03022"/>
			</linearGradient>
			<path fill="none" stroke="url(#SVGID_5_)" stroke-width="0.5" stroke-miterlimit="10" d="M272.9,192.3c0,0-102.5-6.6-165.7,21.8
				C36.8,245.7,6.5,272.1,1,281"/>
			
				<linearGradient id="SVGID_6_" gradientUnits="userSpaceOnUse" x1="-909.6017" y1="-1493.5398" x2="-565.8641" y2="-1493.5398" gradientTransform="matrix(0 0.2723 0.2723 0 541.124 437.5154)">
				<stop  offset="0" style="stop-color:#A93024"/>
				<stop  offset="1" style="stop-color:#A03022"/>
			</linearGradient>
			<path fill="none" stroke="url(#SVGID_6_)" stroke-width="0.5" stroke-miterlimit="10" d="M267.4,190.1c0,0-93.1-4-152.6,25.9
				c-70.5,35.5-105,54.1-113.4,67.4"/>
			
				<linearGradient id="SVGID_7_" gradientUnits="userSpaceOnUse" x1="-916.4692" y1="-1502.7933" x2="-556.5638" y2="-1502.7933" gradientTransform="matrix(0 0.2723 0.2723 0 541.124 437.5154)">
				<stop  offset="0" style="stop-color:#A93024"/>
				<stop  offset="1" style="stop-color:#A03022"/>
			</linearGradient>
			<path fill="none" stroke="url(#SVGID_7_)" stroke-width="0.5" stroke-miterlimit="10" d="M262,188c0,0-83.5-1.2-139.6,30.1
				C51.7,257.5,13,268.2,1.9,285.9"/>
			
				<linearGradient id="SVGID_8_" gradientUnits="userSpaceOnUse" x1="-923.6468" y1="-1511.9921" x2="-546.9641" y2="-1511.9921" gradientTransform="matrix(0 0.2723 0.2723 0 541.124 437.5154)">
				<stop  offset="0" style="stop-color:#A93024"/>
				<stop  offset="1" style="stop-color:#A03022"/>
			</linearGradient>
			<path fill="none" stroke="url(#SVGID_8_)" stroke-width="0.5" stroke-miterlimit="10" d="M256.5,186c0,0-74,1.8-126.6,34.2
				C59.1,263.7,16.2,266.4,2.3,288.5"/>
			
				<linearGradient id="SVGID_9_" gradientUnits="userSpaceOnUse" x1="-930.8461" y1="-1521.2354" x2="-537.2641" y2="-1521.2354" gradientTransform="matrix(0 0.2723 0.2723 0 541.124 437.5154)">
				<stop  offset="0" style="stop-color:#A93024"/>
				<stop  offset="1" style="stop-color:#A03022"/>
			</linearGradient>
			<path fill="none" stroke="url(#SVGID_9_)" stroke-width="0.5" stroke-miterlimit="10" d="M251,184.1c0,0-64.3,5.1-113.5,38.3
				C66.6,270.3,19.4,264.6,2.8,291.2"/>
			
				<linearGradient id="SVGID_10_" gradientUnits="userSpaceOnUse" x1="-938.0439" y1="-1530.4761" x2="-527.6641" y2="-1530.4761" gradientTransform="matrix(0 0.2723 0.2723 0 541.124 437.5154)">
				<stop  offset="0" style="stop-color:#A93024"/>
				<stop  offset="1" style="stop-color:#A03022"/>
			</linearGradient>
			<path fill="none" stroke="url(#SVGID_10_)" stroke-width="0.5" stroke-miterlimit="10" d="M245.5,182.1c0,0-54.6,8.5-100.5,42.4
				C74.1,277,22.6,262.8,3.2,293.8"/>
			
				<linearGradient id="SVGID_11_" gradientUnits="userSpaceOnUse" x1="-945.3384" y1="-1539.7128" x2="-518.0638" y2="-1539.7128" gradientTransform="matrix(0 0.2723 0.2723 0 541.124 437.5154)">
				<stop  offset="0" style="stop-color:#A93024"/>
				<stop  offset="1" style="stop-color:#A03022"/>
			</linearGradient>
			<path fill="none" stroke="url(#SVGID_11_)" stroke-width="0.5" stroke-miterlimit="10" d="M240.1,180.1c0,0-44.7,12-87.5,46.5
				C81.8,283.8,25.9,261,3.6,296.4"/>
			
				<linearGradient id="SVGID_12_" gradientUnits="userSpaceOnUse" x1="-952.5248" y1="-1548.8938" x2="-508.3641" y2="-1548.8938" gradientTransform="matrix(0 0.2723 0.2723 0 541.124 437.5154)">
				<stop  offset="0" style="stop-color:#A93024"/>
				<stop  offset="1" style="stop-color:#A03022"/>
			</linearGradient>
			<path fill="none" stroke="url(#SVGID_12_)" stroke-width="0.5" stroke-miterlimit="10" d="M234.6,178.2c0,0-34.8,15.7-74.4,50.7
				C89.7,291,29.1,259.2,4.1,299"/>
			
				<linearGradient id="SVGID_13_" gradientUnits="userSpaceOnUse" x1="-959.6935" y1="-1558.118" x2="-498.7641" y2="-1558.118" gradientTransform="matrix(0 0.2723 0.2723 0 541.124 437.5154)">
				<stop  offset="0" style="stop-color:#A93024"/>
				<stop  offset="1" style="stop-color:#A03022"/>
			</linearGradient>
			<path fill="none" stroke="url(#SVGID_13_)" stroke-width="0.5" stroke-miterlimit="10" d="M229.1,176.2c0,0-24.8,19.4-61.4,54.8
				C97.8,298.3,32.3,257.4,4.5,301.7"/>
			
				<linearGradient id="SVGID_14_" gradientUnits="userSpaceOnUse" x1="-966.8294" y1="-1567.3392" x2="-489.064" y2="-1567.3392" gradientTransform="matrix(0 0.2723 0.2723 0 541.124 437.5154)">
				<stop  offset="0" style="stop-color:#A93024"/>
				<stop  offset="1" style="stop-color:#A03022"/>
			</linearGradient>
			<path fill="none" stroke="url(#SVGID_14_)" stroke-width="0.5" stroke-miterlimit="10" d="M223.6,174.3c0,0-14.6,23.3-48.4,58.9
				c-69,72.7-139.7,22.4-170.3,71.1"/>
			
				<linearGradient id="SVGID_15_" gradientUnits="userSpaceOnUse" x1="-973.9357" y1="-1576.5717" x2="-479.464" y2="-1576.5717" gradientTransform="matrix(0 0.2723 0.2723 0 541.124 437.5154)">
				<stop  offset="0" style="stop-color:#A93024"/>
				<stop  offset="1" style="stop-color:#A03022"/>
			</linearGradient>
			<path fill="none" stroke="url(#SVGID_15_)" stroke-width="0.5" stroke-miterlimit="10" d="M218.2,172.3c0,0-4.3,27.2-35.3,63
				c-67.9,78.3-144.1,18.5-177.4,71.6"/>
			
				<linearGradient id="SVGID_16_" gradientUnits="userSpaceOnUse" x1="-981.1452" y1="-1585.7996" x2="-469.7639" y2="-1585.7996" gradientTransform="matrix(0 0.2723 0.2723 0 541.124 437.5154)">
				<stop  offset="0" style="stop-color:#A93024"/>
				<stop  offset="1" style="stop-color:#A03022"/>
			</linearGradient>
			<path fill="none" stroke="url(#SVGID_16_)" stroke-width="0.5" stroke-miterlimit="10" d="M212.4,170.3c0,0,6.1,31.1-22.3,67.1
				C123.8,321.6,41.7,252,5.6,309.5"/>
			
				<linearGradient id="SVGID_17_" gradientUnits="userSpaceOnUse" x1="-988.4044" y1="-1595.0381" x2="-460.164" y2="-1595.0381" gradientTransform="matrix(0 0.2723 0.2723 0 541.124 437.5154)">
				<stop  offset="0" style="stop-color:#A93024"/>
				<stop  offset="1" style="stop-color:#A03022"/>
			</linearGradient>
			<path fill="none" stroke="url(#SVGID_17_)" stroke-width="0.5" stroke-miterlimit="10" d="M204.6,168.4c0,0,16.7,35-9.3,71.2
				c-64.4,90-152.7,10.5-191.7,72.5"/>
			
				<linearGradient id="SVGID_18_" gradientUnits="userSpaceOnUse" x1="-995.7407" y1="-1604.2871" x2="-450.564" y2="-1604.2871" gradientTransform="matrix(0 0.2723 0.2723 0 541.124 437.5154)">
				<stop  offset="0" style="stop-color:#A93024"/>
				<stop  offset="1" style="stop-color:#A03022"/>
			</linearGradient>
			<path fill="none" stroke="url(#SVGID_18_)" stroke-width="0.5" stroke-miterlimit="10" d="M195.1,166.4c0,0,27.3,38.9,3.8,75.4
				c-61.9,96.1-157.1,6.6-198.8,73"/>
			
				<linearGradient id="SVGID_19_" gradientUnits="userSpaceOnUse" x1="-902.4205" y1="-1567.1812" x2="-350.4253" y2="-1567.1812" gradientTransform="matrix(0 0.2723 0.2723 0 541.124 437.5154)">
				<stop  offset="0" style="stop-color:#A93024"/>
				<stop  offset="1" style="stop-color:#A03022"/>
			</linearGradient>
			<path fill="none" stroke="url(#SVGID_19_)" stroke-width="0.5" stroke-miterlimit="10" d="M215.5,191.8c0,0,18.1,31.8-6.5,67.5
				C142.4,356,63.6,281.8,6.8,342"/>
			
				<linearGradient id="SVGID_20_" gradientUnits="userSpaceOnUse" x1="-809.0808" y1="-1529.9816" x2="-250.397" y2="-1529.9816" gradientTransform="matrix(0 0.2723 0.2723 0 541.124 437.5154)">
				<stop  offset="0" style="stop-color:#A93024"/>
				<stop  offset="1" style="stop-color:#A03022"/>
			</linearGradient>
			<path fill="none" stroke="url(#SVGID_20_)" stroke-width="0.5" stroke-miterlimit="10" d="M234.9,217.2c0,0,8.8,24.8-16.7,59.6
				c-71.3,97.3-133.8,38.5-205.7,92.5"/>
			
				<linearGradient id="SVGID_21_" gradientUnits="userSpaceOnUse" x1="-715.8038" y1="-1492.8745" x2="-150.2777" y2="-1492.8745" gradientTransform="matrix(0 0.2723 0.2723 0 541.124 437.5154)">
				<stop  offset="0" style="stop-color:#A93024"/>
				<stop  offset="1" style="stop-color:#A03022"/>
			</linearGradient>
			<path fill="none" stroke="url(#SVGID_21_)" stroke-width="0.5" stroke-miterlimit="10" d="M252.6,242.6c0,0-0.5,17.7-26.9,51.7
				c-76.1,97.8-122.1,54.4-209.2,102.3"/>
			
				<linearGradient id="SVGID_22_" gradientUnits="userSpaceOnUse" x1="-651.3672" y1="-1419.7449" x2="-78.8654" y2="-1419.7449" gradientTransform="matrix(0 0.2723 0.2723 0 541.124 437.5154)">
				<stop  offset="0" style="stop-color:#A93024"/>
				<stop  offset="1" style="stop-color:#A03022"/>
			</linearGradient>
			<path fill="none" stroke="url(#SVGID_22_)" stroke-width="0.5" stroke-miterlimit="10" d="M279.4,260.2c0,0-9.8,10.6-37.2,43.8
				c-81,98.4-110.5,70.4-212.7,112"/>
			
				<linearGradient id="SVGID_23_" gradientUnits="userSpaceOnUse" x1="-596.9429" y1="-1333.9532" x2="-17.6575" y2="-1333.9532" gradientTransform="matrix(0 0.2723 0.2723 0 541.124 437.5154)">
				<stop  offset="0" style="stop-color:#A93024"/>
				<stop  offset="1" style="stop-color:#A03022"/>
			</linearGradient>
			<path fill="none" stroke="url(#SVGID_23_)" stroke-width="0.5" stroke-miterlimit="10" d="M309.6,275c0,0-19.2,3.5-47.4,35.9
				c-86,98.9-98.8,86.4-216.1,121.8"/>
			
				<linearGradient id="SVGID_24_" gradientUnits="userSpaceOnUse" x1="-542.7268" y1="-1248.1003" x2="43.9473" y2="-1248.1003" gradientTransform="matrix(0 0.2723 0.2723 0 541.124 437.5154)">
				<stop  offset="0" style="stop-color:#A93024"/>
				<stop  offset="1" style="stop-color:#A03022"/>
			</linearGradient>
			<path fill="none" stroke="url(#SVGID_24_)" stroke-width="0.5" stroke-miterlimit="10" d="M339.9,289.9c0,0-28.6-3.7-57.7,28
				c-91,99.3-87.1,102.3-219.6,131.5"/>
			
				<linearGradient id="SVGID_25_" gradientUnits="userSpaceOnUse" x1="-491.41" y1="-1162.2242" x2="108.2501" y2="-1162.2242" gradientTransform="matrix(0 0.2723 0.2723 0 541.124 437.5154)">
				<stop  offset="0" style="stop-color:#A93024"/>
				<stop  offset="1" style="stop-color:#A03022"/>
			</linearGradient>
			<path fill="none" stroke="url(#SVGID_25_)" stroke-width="0.5" stroke-miterlimit="10" d="M370.1,305.6c0,0-38-10.8-67.9,20.1
				C206,425.3,226.8,443.9,79.1,466.9"/>
			
				<linearGradient id="SVGID_26_" gradientUnits="userSpaceOnUse" x1="-443.3106" y1="-1076.4078" x2="176.0518" y2="-1076.4078" gradientTransform="matrix(0 0.2723 0.2723 0 541.124 437.5154)">
				<stop  offset="0" style="stop-color:#A93024"/>
				<stop  offset="1" style="stop-color:#A03022"/>
			</linearGradient>
			<path fill="none" stroke="url(#SVGID_26_)" stroke-width="0.5" stroke-miterlimit="10" d="M400.3,322.2c0,0-47.5-18-78.1,12.2
				c-101.4,99.9-63.8,134.2-226.5,151"/>
			
				<linearGradient id="SVGID_27_" gradientUnits="userSpaceOnUse" x1="-397.5172" y1="-990.5461" x2="245.9527" y2="-990.5461" gradientTransform="matrix(0 0.2723 0.2723 0 541.124 437.5154)">
				<stop  offset="0" style="stop-color:#A93024"/>
				<stop  offset="1" style="stop-color:#A03022"/>
			</linearGradient>
			<path fill="none" stroke="url(#SVGID_27_)" stroke-width="0.5" stroke-miterlimit="10" d="M430.5,339.4c0,0-57-25.2-88.4,4.3
				c-106.6,100.2-52.1,150.2-230,160.8"/>
			
				<linearGradient id="SVGID_28_" gradientUnits="userSpaceOnUse" x1="-353.1524" y1="-904.6373" x2="317.3531" y2="-904.6373" gradientTransform="matrix(0 0.2723 0.2723 0 541.124 437.5154)">
				<stop  offset="0" style="stop-color:#A93024"/>
				<stop  offset="1" style="stop-color:#A03022"/>
			</linearGradient>
			<path fill="none" stroke="url(#SVGID_28_)" stroke-width="0.5" stroke-miterlimit="10" d="M460.8,357c0,0-66.4-32.4-98.6-3.6
				c-112,100.3-40.4,166.1-233.5,170.5"/>
			
				<linearGradient id="SVGID_29_" gradientUnits="userSpaceOnUse" x1="-309.7792" y1="-818.7826" x2="389.8599" y2="-818.7826" gradientTransform="matrix(0 0.2723 0.2723 0 541.124 437.5154)">
				<stop  offset="0" style="stop-color:#A93024"/>
				<stop  offset="1" style="stop-color:#A03022"/>
			</linearGradient>
			<path fill="none" stroke="url(#SVGID_29_)" stroke-width="0.5" stroke-miterlimit="10" d="M491,374.8c0,0-76-39.7-108.8-11.5
				c-117.3,100.4-28.8,182.1-237,180.3"/>
			
				<linearGradient id="SVGID_30_" gradientUnits="userSpaceOnUse" x1="-267.9915" y1="-732.9836" x2="463.7451" y2="-732.9836" gradientTransform="matrix(0 0.2723 0.2723 0 541.124 437.5154)">
				<stop  offset="0" style="stop-color:#A93024"/>
				<stop  offset="1" style="stop-color:#A03022"/>
			</linearGradient>
			<path fill="none" stroke="url(#SVGID_30_)" stroke-width="0.5" stroke-miterlimit="10" d="M521.3,392.7c0,0-85.5-46.9-119.1-19.4
				c-122.7,100.4-17.1,198-240.4,190"/>
			
				<linearGradient id="SVGID_31_" gradientUnits="userSpaceOnUse" x1="-227.2175" y1="-647.1348" x2="538.7966" y2="-647.1348" gradientTransform="matrix(0 0.2723 0.2723 0 541.124 437.5154)">
				<stop  offset="0" style="stop-color:#A93024"/>
				<stop  offset="1" style="stop-color:#A03022"/>
			</linearGradient>
			<path fill="none" stroke="url(#SVGID_31_)" stroke-width="0.5" stroke-miterlimit="10" d="M551.5,410.5c0,0-95-54.2-129.3-27.3
				C294,483.5,416.7,597.2,178.3,583"/>
			
				<linearGradient id="SVGID_32_" gradientUnits="userSpaceOnUse" x1="-187.2363" y1="-561.2858" x2="614.5015" y2="-561.2858" gradientTransform="matrix(0 0.2723 0.2723 0 541.124 437.5154)">
				<stop  offset="0" style="stop-color:#A93024"/>
				<stop  offset="1" style="stop-color:#A03022"/>
			</linearGradient>
			<path fill="none" stroke="url(#SVGID_32_)" stroke-width="0.5" stroke-miterlimit="10" d="M581.7,428.3
				c0,0-104.5-61.5-139.6-35.2c-133.7,100.1,6.2,229.9-247.4,209.5"/>
			
				<linearGradient id="SVGID_33_" gradientUnits="userSpaceOnUse" x1="-147.7301" y1="-475.4869" x2="690.7442" y2="-475.4869" gradientTransform="matrix(0 0.2723 0.2723 0 541.124 437.5154)">
				<stop  offset="0" style="stop-color:#A93024"/>
				<stop  offset="1" style="stop-color:#A03022"/>
			</linearGradient>
			<path fill="none" stroke="url(#SVGID_33_)" stroke-width="0.5" stroke-miterlimit="10" d="M611.9,446.2c0,0-114-68.8-149.8-43.1
				C323,503,480,649,211.3,622.4"/>
		</g>
	</g>
</g>
</svg>
