<?xml version="1.0" encoding="utf-8"?>
<!-- Generator: Adobe Illustrator 18.1.1, SVG Export Plug-In . SVG Version: 6.00 Build 0)  -->
<svg version="1.1" id="Layer_1" xmlns="http://www.w3.org/2000/svg" xmlns:xlink="http://www.w3.org/1999/xlink" x="0px" y="0px"
	 viewBox="8.3 101.1 598.3 592.7" enable-background="new 8.3 101.1 598.3 592.7" xml:space="preserve">
<g>
	
		<polyline fill="none" stroke="#9D3021" stroke-width="0.5" stroke-linecap="round" stroke-linejoin="round" stroke-miterlimit="10" points="
		172.8,651 8.5,693.5 59.5,543.3 	"/>
	<path fill="none" stroke="#9D3021" stroke-width="0.5" stroke-linecap="round" stroke-linejoin="round" stroke-miterlimit="10" d="
		M56.7,543.3C31.2,500.8,17,449.8,17,396c0-164.3,133.2-294.7,294.7-294.7S606.3,231.7,606.3,396S473.2,687.8,311.7,687.8
		c-51,0-99.2-14.2-141.7-36.8"/>
	<path fill="none" stroke="#9D3021" stroke-width="0.5" stroke-linecap="round" stroke-linejoin="round" stroke-miterlimit="10" d="
		M260.7,296.8c-14.2,14.2-48.2,42.5-14.2,73.7s70.8,70.8,85,82.2c14.2,11.3,42.5,22.7,65.2-5.7c22.7-28.3,28.3-22.7,42.5-14.2
		c14.2,8.5,42.5,25.5,56.7,45.3s11.3,31.2,0,42.5s-28.3,34-59.5,42.5c-31.2,8.5-51,8.5-82.2-11.3S206.8,418.7,184.2,396
		c-25.5-22.7-42.5-42.5-51-76.5s-2.8-62.3,17-82.2c19.8-19.8,34-36.8,45.3-39.7c11.3-2.8,19.8,0,34,14.2
		c14.2,14.2,31.2,39.7,36.8,51C272,271.3,274.8,282.7,260.7,296.8z"/>
</g>
</svg>
