<?xml version="1.0" encoding="utf-8"?>
<!-- Generator: Adobe Illustrator 18.1.1, SVG Export Plug-In . SVG Version: 6.00 Build 0)  -->
<svg version="1.1" id="Layer_1" xmlns="http://www.w3.org/2000/svg" xmlns:xlink="http://www.w3.org/1999/xlink" x="0px" y="0px"
	 viewBox="0 0 16.6 16.6" enable-background="new 0 0 16.6 16.6" xml:space="preserve">
<g>
	<g>
		<path fill="#67696C" d="M16.6,8.1c0,4.5-3.7,8.1-8.2,8.1c-1.4,0-2.8-0.4-3.9-1L0,16.6l1.5-4.3c-0.7-1.2-1.2-2.7-1.2-4.2
			C0.3,3.6,4,0,8.5,0C13,0,16.6,3.6,16.6,8.1 M8.5,1.3c-3.8,0-6.9,3.1-6.9,6.8c0,1.5,0.5,2.9,1.3,4l-0.9,2.5l2.6-0.8
			c1.1,0.7,2.4,1.1,3.8,1.1c3.8,0,6.9-3.1,6.9-6.8C15.3,4.3,12.2,1.3,8.5,1.3 M12.6,10c-0.1-0.1-0.2-0.1-0.4-0.2
			C12,9.6,11,9.2,10.8,9.1C10.7,9,10.5,9,10.4,9.2C10.3,9.4,9.9,9.8,9.8,10c-0.1,0.1-0.2,0.1-0.4,0C9.1,9.9,8.5,9.7,7.7,9
			c-0.6-0.5-1-1.2-1.1-1.4c-0.1-0.2,0-0.3,0.1-0.4C6.8,7.2,6.9,7,7,6.9c0.1-0.1,0.1-0.2,0.2-0.3c0.1-0.1,0-0.2,0-0.3
			c0-0.1-0.5-1.1-0.6-1.5C6.4,4.4,6.2,4.4,6.1,4.4s-0.3,0-0.4,0c-0.1,0-0.3,0-0.5,0.2C5,4.8,4.5,5.3,4.5,6.3c0,1,0.7,1.9,0.8,2.1
			c0.1,0.1,1.4,2.2,3.4,3c2,0.8,2,0.5,2.4,0.5c0.4,0,1.2-0.5,1.4-0.9C12.6,10.4,12.6,10,12.6,10"/>
	</g>
</g>
</svg>
