<?xml version="1.0" encoding="utf-8"?>
<!-- Generator: Adobe Illustrator 18.1.1, SVG Export Plug-In . SVG Version: 6.00 Build 0)  -->
<svg version="1.1" id="Layer_1" xmlns="http://www.w3.org/2000/svg" xmlns:xlink="http://www.w3.org/1999/xlink" x="0px" y="0px"
	 viewBox="0 0 29.9 29.9" enable-background="new 0 0 29.9 29.9" xml:space="preserve">
<g>
	<g>
		<path fill="#FFFFFF" d="M24.1,0H5.8C2.6,0,0,2.6,0,5.8v6.1v12.2c0,3.2,2.6,5.8,5.8,5.8h18.3c3.2,0,5.8-2.6,5.8-5.8V11.9V5.8
			C29.9,2.6,27.3,0,24.1,0z M25.8,3.4l0.7,0v0.7v4.4l-5,0l0-5.1L25.8,3.4z M10.7,11.9c1-1.3,2.5-2.2,4.3-2.2c1.8,0,3.3,0.9,4.3,2.2
			c0.6,0.9,1,1.9,1,3.1c0,2.9-2.4,5.3-5.3,5.3c-2.9,0-5.3-2.4-5.3-5.3C9.7,13.8,10.1,12.7,10.7,11.9z M27,24.1
			c0,1.6-1.3,2.9-2.9,2.9H5.8c-1.6,0-2.9-1.3-2.9-2.9V11.9h4.5c-0.4,0.9-0.6,2-0.6,3.1c0,4.5,3.7,8.2,8.2,8.2c4.5,0,8.2-3.7,8.2-8.2
			c0-1.1-0.2-2.1-0.6-3.1H27V24.1z"/>
	</g>
</g>
</svg>
