<?xml version="1.0" encoding="utf-8"?>
<!-- Generator: Adobe Illustrator 18.1.1, SVG Export Plug-In . SVG Version: 6.00 Build 0)  -->
<svg version="1.1" id="Layer_1" xmlns="http://www.w3.org/2000/svg" xmlns:xlink="http://www.w3.org/1999/xlink" x="0px" y="0px"
	 viewBox="0 0 46 74" enable-background="new 0 0 46 74" xml:space="preserve">
<g>
	<path fill="#B92025" d="M35,46.8H0v-6.8C0,38.3,1.3,37,2.9,37h29.1c1.6,0,2.9,1.3,2.9,2.9V46.8z M2,44.8h31v-4.8
		c0-0.5-0.4-0.9-0.9-0.9H2.9C2.4,39,2,39.4,2,39.9V44.8z"/>
	<polygon fill="#B92025" points="35,74 0,74 0,52 2,52 2,72 33,72 33,52 35,52 	"/>
	<path fill="#B92025" d="M46,14H24V3c0-1.7,1.4-3,3-3H43c1.7,0,3,1.4,3,3V14z M26,12h18V3c0-0.6-0.5-1-1-1H27c-0.6,0-1,0.5-1,1V12z"
		/>
	<polygon fill="#B92025" points="46,74 34.3,74 34.3,72 44,72 44,19 46,19 	"/>
	<rect x="24" y="19" fill="#B92025" width="2" height="18.7"/>
</g>
</svg>
