<?xml version="1.0" encoding="utf-8"?>
<!-- Generator: Adobe Illustrator 18.1.1, SVG Export Plug-In . SVG Version: 6.00 Build 0)  -->
<svg version="1.1" id="Layer_1" xmlns="http://www.w3.org/2000/svg" xmlns:xlink="http://www.w3.org/1999/xlink" x="0px" y="0px"
	 viewBox="0 0 26.6 20.9" enable-background="new 0 0 26.6 20.9" xml:space="preserve">
<g>
	<g>
		<g>
			<path fill="#FFFFFF" d="M24.3,20.9c0.6,0,1.1-0.2,1.6-0.6l-7.5-7.5c-0.2,0.1-0.4,0.3-0.5,0.4c-0.6,0.4-1,0.7-1.4,1
				c-0.4,0.2-0.8,0.5-1.4,0.7c-0.6,0.2-1.1,0.4-1.6,0.4h0h0c-0.5,0-1.1-0.1-1.6-0.4c-0.6-0.2-1.1-0.5-1.4-0.7
				c-0.4-0.2-0.8-0.6-1.4-1c-0.2-0.1-0.3-0.2-0.5-0.4l-7.5,7.5c0.4,0.4,1,0.6,1.6,0.6H24.3z"/>
			<path fill="#FFFFFF" d="M1.5,8C0.9,7.7,0.4,7.2,0,6.8v11.5l6.7-6.7C5.3,10.7,3.6,9.5,1.5,8z"/>
			<path fill="#FFFFFF" d="M25.2,8c-2,1.4-3.7,2.6-5.2,3.5l6.7,6.7V6.8C26.2,7.2,25.7,7.7,25.2,8z"/>
			<path fill="#FFFFFF" d="M24.3,0H2.4C1.6,0,1,0.3,0.6,0.8C0.2,1.3,0,1.9,0,2.7c0,0.6,0.3,1.3,0.8,2C1.4,5.5,1.9,6,2.6,6.5
				c0.3,0.2,1.4,0.9,3,2.1C6.5,9.2,7.3,9.8,8,10.2c0.6,0.4,1.1,0.8,1.5,1c0,0,0.1,0.1,0.2,0.2c0.1,0.1,0.2,0.2,0.4,0.3
				c0.3,0.2,0.6,0.4,0.8,0.6c0.2,0.1,0.5,0.3,0.8,0.5c0.3,0.2,0.6,0.3,0.9,0.4c0.3,0.1,0.5,0.1,0.7,0.1h0h0c0.2,0,0.5,0,0.7-0.1
				c0.3-0.1,0.6-0.2,0.9-0.4c0.3-0.2,0.6-0.3,0.8-0.5c0.2-0.1,0.5-0.3,0.8-0.6c0.2-0.1,0.3-0.2,0.4-0.3c0.1-0.1,0.2-0.1,0.2-0.2
				c0.3-0.2,0.8-0.6,1.5-1c1.2-0.9,3-2.1,5.5-3.8c0.7-0.5,1.3-1.1,1.8-1.8c0.5-0.7,0.7-1.5,0.7-2.2c0-0.7-0.2-1.2-0.7-1.7
				C25.5,0.2,24.9,0,24.3,0z"/>
		</g>
	</g>
</g>
</svg>
