<?xml version="1.0" encoding="utf-8"?>
<!-- Generator: Adobe Illustrator 18.1.1, SVG Export Plug-In . SVG Version: 6.00 Build 0)  -->
<svg version="1.1" id="Layer_1" xmlns="http://www.w3.org/2000/svg" xmlns:xlink="http://www.w3.org/1999/xlink" x="0px" y="0px"
	 viewBox="0 0 14.2 14.2" enable-background="new 0 0 14.2 14.2" xml:space="preserve">
<g>
	<g>
		<path fill="#67696C" d="M11.4,0H2.7C1.2,0,0,1.2,0,2.7v2.9v5.8c0,1.5,1.2,2.7,2.7,2.7h8.7c1.5,0,2.7-1.2,2.7-2.7V5.6V2.7
			C14.2,1.2,12.9,0,11.4,0z M12.2,1.6l0.3,0v0.3V4l-2.4,0l0-2.4L12.2,1.6z M5.1,5.6c0.5-0.6,1.2-1,2-1c0.8,0,1.6,0.4,2,1
			C9.4,6,9.6,6.5,9.6,7.1c0,1.4-1.1,2.5-2.5,2.5c-1.4,0-2.5-1.1-2.5-2.5C4.6,6.5,4.8,6,5.1,5.6z M12.8,11.4c0,0.7-0.6,1.4-1.4,1.4
			H2.7c-0.8,0-1.4-0.6-1.4-1.4V5.6h2.1C3.3,6.1,3.2,6.6,3.2,7.1c0,2.1,1.7,3.9,3.9,3.9C9.2,11,11,9.2,11,7.1c0-0.5-0.1-1-0.3-1.5
			h2.1V11.4z"/>
	</g>
</g>
</svg>
