<?xml version="1.0" encoding="utf-8"?>
<!-- Generator: Adobe Illustrator 18.1.1, SVG Export Plug-In . SVG Version: 6.00 Build 0)  -->
<svg version="1.1" id="Layer_1" xmlns="http://www.w3.org/2000/svg" xmlns:xlink="http://www.w3.org/1999/xlink" x="0px" y="0px"
	 viewBox="0 324.8 612 467.3" enable-background="new 0 324.8 612 467.3" xml:space="preserve">
<g>
	<g>
		<g>
			<defs>
				<rect id="SVGID_1_" y="324.8" width="612" height="467.3"/>
			</defs>
			<clipPath id="SVGID_2_">
				<use xlink:href="#SVGID_1_"  overflow="visible"/>
			</clipPath>
			<g clip-path="url(#SVGID_2_)">
				
					<line fill="none" stroke="#CECECE" stroke-width="0.5" stroke-miterlimit="10" x1="-567.1" y1="-360.1" x2="-1010.5" y2="-28.2"/>
				<path fill="none" stroke="#CECECE" stroke-width="0.5" stroke-miterlimit="10" d="M-443.9-291.3c0,0-240.9,186-254.1,196.8
					c-9.6,7.9-200.8,152.3-200.8,152.3"/>
				<path fill="none" stroke="#CECECE" stroke-width="0.5" stroke-miterlimit="10" d="M-320.9-222.5c0,0-233.1,185.8-259.6,207.7
					c-19.1,15.8-207,158.6-207,158.6"/>
				<path fill="none" stroke="#CECECE" stroke-width="0.5" stroke-miterlimit="10" d="M-197.7-153.8c0,0-225.2,185.5-265,218.5
					c-28.7,23.6-213,165-213,165"/>
				<path fill="none" stroke="#CECECE" stroke-width="0.5" stroke-miterlimit="10" d="M-74.7-85c0,0-217.5,185.3-270.5,229.2
					c-38.2,31.5-219,171.4-219,171.4"/>
				<path fill="none" stroke="#CECECE" stroke-width="0.5" stroke-miterlimit="10" d="M48.5-16.2c0,0-209.7,185.1-276,240
					c-47.8,39.4-225.2,177.9-225.2,177.9"/>
				<path fill="none" stroke="#CECECE" stroke-width="0.5" stroke-miterlimit="10" d="M171.4,52.5c0,0-201.8,185.1-281.3,250.7
					C-167.1,350.5-341,487.6-341,487.6"/>
				<path fill="none" stroke="#CECECE" stroke-width="0.5" stroke-miterlimit="10" d="M294.7,121.3c0,0-193.9,184.8-286.8,261.5
					C-59,437.9-229.5,573.6-229.5,573.6"/>
				<path fill="none" stroke="#CECECE" stroke-width="0.5" stroke-miterlimit="10" d="M417.6,190.1c0,0-186.3,184.6-292.3,272.2
					C49.2,525.3-118,659.5-118,659.5"/>
				<path fill="none" stroke="#CECECE" stroke-width="0.5" stroke-miterlimit="10" d="M540.8,258.8c0,0-178.4,184.3-297.8,283
					C157.1,612.7-6.2,745.5-6.2,745.5"/>
				<path fill="none" stroke="#CECECE" stroke-width="0.5" stroke-miterlimit="10" d="M663.8,327.6c0,0-170.5,184.1-303.3,293.7
					C265,700.1,105.1,831.4,105.1,831.4"/>
				<path fill="none" stroke="#CECECE" stroke-width="0.5" stroke-miterlimit="10" d="M675.5,360.8c0,0-178.4,184.3-297.8,283
					c-85.9,70.9-249.2,203.6-249.2,203.6"/>
				<path fill="none" stroke="#CECECE" stroke-width="0.5" stroke-miterlimit="10" d="M687.2,394.2c0,0-186.3,184.6-292.3,272.2
					c-76.4,63-243.3,197.2-243.3,197.2"/>
				<path fill="none" stroke="#CECECE" stroke-width="0.5" stroke-miterlimit="10" d="M698.9,427.4c0,0-193.9,184.8-286.8,261.5
					c-66.9,55.2-237.4,190.8-237.4,190.8"/>
				<path fill="none" stroke="#CECECE" stroke-width="0.5" stroke-miterlimit="10" d="M710.6,460.9c0,0-201.8,185.1-281.3,250.7
					C372,758.9,198.2,895.9,198.2,895.9"/>
				<path fill="none" stroke="#CECECE" stroke-width="0.5" stroke-miterlimit="10" d="M722.1,494c0,0-209.7,185.1-276,240
					c-47.8,39.4-225.2,177.9-225.2,177.9"/>
				<path fill="none" stroke="#CECECE" stroke-width="0.5" stroke-miterlimit="10" d="M733.8,527.5c0,0-217.5,185.3-270.5,229.2
					c-38.2,31.5-219,171.4-219,171.4"/>
				<path fill="none" stroke="#CECECE" stroke-width="0.5" stroke-miterlimit="10" d="M745.5,560.7c0,0-225.2,185.5-265,218.5
					c-28.7,23.6-213,165-213,165"/>
				<path fill="none" stroke="#CECECE" stroke-width="0.5" stroke-miterlimit="10" d="M757.2,594.1c0,0-233.1,185.8-259.6,207.7
					c-19.1,15.8-207,158.6-207,158.6"/>
				<path fill="none" stroke="#CECECE" stroke-width="0.5" stroke-miterlimit="10" d="M768.9,627.3c0,0-240.9,186-254.1,196.8
					C505.3,831.9,314,976.4,314,976.4"/>
				<line fill="none" stroke="#CECECE" stroke-width="0.5" stroke-miterlimit="10" x1="780.3" y1="660.7" x2="336.9" y2="992.6"/>
			</g>
		</g>
	</g>
</g>
</svg>
