<?xml version="1.0" encoding="utf-8"?>
<!-- Generator: Adobe Illustrator 18.1.1, SVG Export Plug-In . SVG Version: 6.00 Build 0)  -->
<svg version="1.1" id="Layer_1" xmlns="http://www.w3.org/2000/svg" xmlns:xlink="http://www.w3.org/1999/xlink" x="0px" y="0px"
	 viewBox="71.4 89.3 469.3 613.5" enable-background="new 71.4 89.3 469.3 613.5" xml:space="preserve">
<g>
	<g>
		<defs>
			
				<rect id="SVGID_1_" x="0" y="162.4" transform="matrix(-3.198662e-003 -1 1 -3.198662e-003 -89.0192 703.2651)" width="612" height="467.3"/>
		</defs>
		<clipPath id="SVGID_2_">
			<use xlink:href="#SVGID_1_"  overflow="visible"/>
		</clipPath>
		<g clip-path="url(#SVGID_2_)">
			<path fill="none" stroke="#D3D3D3" stroke-width="0.5" stroke-miterlimit="10" d="M684.3,84c0,0-104.5,546.7-187.4,823.7
				s-272.6,485.8-272.6,485.8"/>
			<path fill="none" stroke="#D1D1D1" stroke-width="0.5" stroke-miterlimit="10" d="M664.2,60.9c0,0-85,518.2-170.6,792.8
				c-94.3,303.6-264.1,535.7-265.9,548.6"/>
			<path fill="none" stroke="#CECECE" stroke-width="0.5" stroke-miterlimit="10" d="M644.3,37.8c0,0-66,489.5-153.7,761.7
				c-106.2,329.9-255.5,585.6-259,611.4"/>
			<path fill="none" stroke="#CCCCCC" stroke-width="0.5" stroke-miterlimit="10" d="M624.2,14.7c0,0-47.2,460.8-136.9,730.6
				c-118,356.2-247,635.5-252.4,674.4"/>
			<path fill="none" stroke="#CACACA" stroke-width="0.5" stroke-miterlimit="10" d="M604.3-8.4c0,0-28.9,432.1-120,699.8
				c-130.1,382.2-238.3,685.4-245.5,737.2"/>
			<path fill="none" stroke="#C8C8C8" stroke-width="0.5" stroke-miterlimit="10" d="M584.1-31.5c0,0-10.4,403.3-103.2,668.7
				c-142.4,408.3-229.7,735.2-238.9,800"/>
			<path fill="none" stroke="#C5C5C5" stroke-width="0.5" stroke-miterlimit="10" d="M564.2-54.6c0,0,7.6,374.6-86.3,637.8
				c-155.3,434.4-221.2,785.1-232,862.8"/>
			<path fill="none" stroke="#C3C3C3" stroke-width="0.5" stroke-miterlimit="10" d="M542.7-77.7c0,0,25.7,345.7-69.5,606.7
				c-167.8,460.4-212.7,835-225.3,925.5"/>
			<path fill="none" stroke="#C1C1C1" stroke-width="0.5" stroke-miterlimit="10" d="M519.4-100.8c0,0,43.8,316.7-52.6,575.9
				C286,961.4,262.9,1360,248.4,1463.4"/>
			<path fill="none" stroke="#BFBFBF" stroke-width="0.5" stroke-miterlimit="10" d="M494.8-123.8c0,0,61.6,287.8-35.7,544.8
				C264.9,933,263.6,1355.7,247.2,1472"/>
			<path fill="none" stroke="#BCBCBC" stroke-width="0.5" stroke-miterlimit="10" d="M469.4-146.9c0,0,79.6,258.8-18.9,513.7
				c-207.7,537.7-186.9,984.6-204.9,1114.1"/>
			<path fill="none" stroke="#BABABA" stroke-width="0.5" stroke-miterlimit="10" d="M443.3-170c0,0,97.2,229.9-2.3,482.8
				C219.5,876.1,262.6,1347.3,242.8,1489.7"/>
			<path fill="none" stroke="#BCBCBC" stroke-width="0.5" stroke-miterlimit="10" d="M385.2-276.1c0,0,54.6,267.5-46.6,514
				C120.1,776.6,158.3,1296.6,200.9,1471"/>
			<path fill="none" stroke="#BFBFBF" stroke-width="0.5" stroke-miterlimit="10" d="M329.2-382.2c0,0,10.8,304.9-90.7,545.2
				C21.2,676.4,56.2,1245.8,161.5,1452.2"/>
			<path fill="none" stroke="#C1C1C1" stroke-width="0.5" stroke-miterlimit="10" d="M267.7-488.2c0,0-32.3,342.5-135,576.4
				C-82,576.7-51.4,1195,116,1433.5"/>
			<path fill="none" stroke="#C3C3C3" stroke-width="0.5" stroke-miterlimit="10" d="M206.7-594.3c0,0-75.4,380.1-179.3,607.3
				c-212.2,463.7-186,1131,43.9,1401.8"/>
			<path fill="none" stroke="#C5C5C5" stroke-width="0.5" stroke-miterlimit="10" d="M146-700.3c0,0-118.3,417.8-223.6,638.5
				c-209.4,439.1-188,1155.1,104.5,1457.9"/>
			<path fill="none" stroke="#C8C8C8" stroke-width="0.5" stroke-miterlimit="10" d="M85.7-806.4c0,0-161.2,455.4-267.9,669.7
				C-388.9,277.8-372.1,1042.5-17.4,1377.4"/>
			<path fill="none" stroke="#CACACA" stroke-width="0.5" stroke-miterlimit="10" d="M25.7-912.5c0,0-204,493.3-312.2,700.9
				C-490,178.3-478.5,991.8-61.2,1358.6"/>
			<path fill="none" stroke="#CCCCCC" stroke-width="0.5" stroke-miterlimit="10" d="M-34.1-1018.5c0,0-246.6,531.1-356.6,732.1
				c-200.1,365.7-194,1227.7,285.8,1626.6"/>
			<path fill="none" stroke="#CECECE" stroke-width="0.5" stroke-miterlimit="10" d="M-93.9-1124.6c0,0-289,569-400.9,763.2
				C-691.2-20.2-690.7,890.2-148.4,1321.4"/>
			<path fill="none" stroke="#D1D1D1" stroke-width="0.5" stroke-miterlimit="10" d="M-153.5-1230.4c0,0-331.4,606.9-445.2,794.4
				c-192.4,317.2-197.7,1275.7,407,1739"/>
			<path fill="none" stroke="#D3D3D3" stroke-width="0.5" stroke-miterlimit="10" d="M-213.3-1336.5c0,0-373.5,645.2-489.5,825.6
				C-891.2-217.5-902.3,789-235.2,1284.2"/>
		</g>
	</g>
</g>
</svg>
