<?xml version="1.0" encoding="utf-8"?>
<!-- Generator: Adobe Illustrator 18.1.1, SVG Export Plug-In . SVG Version: 6.00 Build 0)  -->
<svg version="1.1" id="Layer_1" xmlns="http://www.w3.org/2000/svg" xmlns:xlink="http://www.w3.org/1999/xlink" x="0px" y="0px"
	 viewBox="76.7 89.9 458.6 612.1" enable-background="new 76.7 89.9 458.6 612.1" xml:space="preserve">
<g>
	<g>
		<defs>
			
				<rect id="SVGID_1_" x="0" y="166.8" transform="matrix(-2.426346e-004 -1 1 -2.426346e-004 -89.9257 702.0961)" width="612" height="458.5"/>
		</defs>
		<clipPath id="SVGID_2_">
			<use xlink:href="#SVGID_1_"  overflow="visible"/>
		</clipPath>
		<g clip-path="url(#SVGID_2_)">
			<path fill="none" stroke="#CECECE" stroke-width="0.5" stroke-miterlimit="10" d="M-1394.8,417.8c0,0,308.6-426.8,491.7-626.9
				s433.8-281.4,433.8-281.4"/>
			<path fill="none" stroke="#CCCCCC" stroke-width="0.5" stroke-miterlimit="10" d="M-1235.3,487.9c0,0,246.6-439.4,441.4-632.4
				c187.9-186.3,402.8-296.4,440.2-339.2"/>
			<path fill="none" stroke="#CACACA" stroke-width="0.5" stroke-miterlimit="10" d="M-1076,558.3c0,0,184-451.8,391-637.9
				c191.9-172.7,371.9-311.7,446.9-397"/>
			<path fill="none" stroke="#C9C9C9" stroke-width="0.5" stroke-miterlimit="10" d="M-916.5,628.5c0,0,121-464.7,340.3-643.4
				c195.8-159.6,341.1-327,453.6-454.8"/>
			<path fill="none" stroke="#C7C7C7" stroke-width="0.5" stroke-miterlimit="10" d="M-757.2,698.7c0,0,57.7-477.8,290-649.1
				C-268.2-96.8-156.9-292.7-7-462.9"/>
			<path fill="none" stroke="#C5C5C5" stroke-width="0.5" stroke-miterlimit="10" d="M-597.7,768.8c0,0-6.1-491.4,239.6-654.6
				c201.7-134,279.3-357.5,466.9-570.6"/>
			<path fill="none" stroke="#C3C3C3" stroke-width="0.5" stroke-miterlimit="10" d="M-433.9,839c0,0-70.3-505.2,189-660
				C-40.6,57.1,3.3-193.8,228.7-449.4"/>
			<path fill="none" stroke="#C1C1C1" stroke-width="0.5" stroke-miterlimit="10" d="M-262.2,909.4c0,0-134.8-519.8,138.6-665.5
				c206.8-110.4,217.4-388.1,480-686.4"/>
			<path fill="none" stroke="#C0C0C0" stroke-width="0.5" stroke-miterlimit="10" d="M-85.7,979.6c0,0-199.5-534.8,87.9-671
				c209.1-98.9,186.6-403.3,486.9-744.2"/>
			<path fill="none" stroke="#BEBEBE" stroke-width="0.5" stroke-miterlimit="10" d="M93.6,1049.7c0,0-264.2-550.6,37.6-676.5
				C342.3,285.1,286.8-45.4,624.6-429"/>
			<path fill="none" stroke="#BCBCBC" stroke-width="0.5" stroke-miterlimit="10" d="M274.7,1119.9c0,0-329.2-567-12.8-682
				C475,360.3,386.4,4.3,761.6-422.1"/>
			<path fill="none" stroke="#BABABA" stroke-width="0.5" stroke-miterlimit="10" d="M456.6,1190.3c0,0-394.1-584.2-63.4-687.7
				c215.6-67.4,93.7-448.9,506.7-917.8"/>
			<path fill="none" stroke="#BCBCBC" stroke-width="0.5" stroke-miterlimit="10" d="M434.4,1184.8c0,0-339.7-574.2-10.9-669.3
				c228.3-66,95.4-464.7,486.9-914.2"/>
			<path fill="none" stroke="#BEBEBE" stroke-width="0.5" stroke-miterlimit="10" d="M413.2,1179.3c0,0-285.2-563.9,41.4-650.9
				c241.2-64.3,97.3-480.7,467.3-910.6"/>
			<path fill="none" stroke="#C0C0C0" stroke-width="0.5" stroke-miterlimit="10" d="M393.6,1173.8c0,0-230.3-553,93.9-632.6
				C741.3,479.1,586.2,44.8,934.8-366"/>
			<path fill="none" stroke="#C1C1C1" stroke-width="0.5" stroke-miterlimit="10" d="M376.2,1168.3c0,0-175.6-541.8,146.2-614.2
				c266.9-60,100.6-512.5,427.4-903.7"/>
			<path fill="none" stroke="#C3C3C3" stroke-width="0.5" stroke-miterlimit="10" d="M361.8,1162.8c0,0-120.5-530.1,198.8-595.8
				C840.2,509.4,662.7,38.8,968.2-333"/>
			<path fill="none" stroke="#C5C5C5" stroke-width="0.5" stroke-miterlimit="10" d="M351.8,1157.3c0,0-65.6-518.1,251.1-577.4
				c293-54.8,104-544,388-896.5"/>
			<path fill="none" stroke="#C7C7C7" stroke-width="0.5" stroke-miterlimit="10" d="M347.5,1151.9c0,0-10.4-506,303.6-559.1
				c305.9-51.9,105.4-560,368-892.9"/>
			<path fill="none" stroke="#C9C9C9" stroke-width="0.5" stroke-miterlimit="10" d="M345.8,1146.4c0,0,44.8-493.6,355.9-540.9
				c319-48.6,107.1-575.7,348.2-889.3"/>
			<path fill="none" stroke="#CACACA" stroke-width="0.5" stroke-miterlimit="10" d="M344.1,1141.1c0,0,99.9-480.7,408.4-522.6
				c332.1-44.7,108.7-591.5,328.4-885.7"/>
			<path fill="none" stroke="#CCCCCC" stroke-width="0.5" stroke-miterlimit="10" d="M342.5,1135.6c0,0,154.9-467.8,460.7-504.2
				c345.3-40.9,110.4-607.5,308.5-882.4"/>
			<path fill="none" stroke="#CECECE" stroke-width="0.5" stroke-miterlimit="10" d="M340.8,1130.1c0,0,210-454.9,513.3-485.8
				c358.4-36.6,112.1-623.3,288.7-878.8"/>
		</g>
	</g>
</g>
</svg>
