<?xml version="1.0" encoding="utf-8"?>
<!-- Generator: Adobe Illustrator 18.1.1, SVG Export Plug-In . SVG Version: 6.00 Build 0)  -->
<svg version="1.1" id="Layer_1" xmlns="http://www.w3.org/2000/svg" xmlns:xlink="http://www.w3.org/1999/xlink" x="0px" y="0px"
	 viewBox="0 162.4 612 467.3" enable-background="new 0 162.4 612 467.3" xml:space="preserve">
<g>
	<g>
		<defs>
			<rect id="SVGID_1_" y="162.4" width="612" height="467.3"/>
		</defs>
		<clipPath id="SVGID_2_">
			<use xlink:href="#SVGID_1_"  overflow="visible"/>
		</clipPath>
		<g clip-path="url(#SVGID_2_)">
			<path fill="none" stroke="#D3D3D3" stroke-width="0.5" stroke-miterlimit="10" d="M-4.8,16.7c0,0,546.3,106.3,823.1,190.1
				s485,274.1,485,274.1"/>
			<path fill="none" stroke="#D1D1D1" stroke-width="0.5" stroke-miterlimit="10" d="M-27.9,36.8c0,0,517.9,86.7,792.3,173.1
				c303.3,95.3,534.9,265.8,547.8,267.7"/>
			<path fill="none" stroke="#CECECE" stroke-width="0.5" stroke-miterlimit="10" d="M-51.1,56.6c0,0,489.3,67.6,761.2,156.2
				c329.5,107.2,584.8,257.4,610.6,261"/>
			<path fill="none" stroke="#CCCCCC" stroke-width="0.5" stroke-miterlimit="10" d="M-74.3,76.6c0,0,460.6,48.7,730.2,139.2
				c355.8,119.2,634.7,249.1,673.6,254.5"/>
			<path fill="none" stroke="#CACACA" stroke-width="0.5" stroke-miterlimit="10" d="M-97.4,96.4c0,0,432,30.3,699.4,122.3
				c381.8,131.3,684.6,240.5,736.4,247.9"/>
			<path fill="none" stroke="#C8C8C8" stroke-width="0.5" stroke-miterlimit="10" d="M-120.6,116.5c0,0,403.3,11.7,668.4,105.3
				c407.8,143.7,734.5,232.1,799.2,241.4"/>
			<path fill="none" stroke="#C5C5C5" stroke-width="0.5" stroke-miterlimit="10" d="M-143.7,136.3c0,0,374.7-6.4,637.5,88.3
				c433.9,156.6,784.4,223.7,862,234.7"/>
			<path fill="none" stroke="#C3C3C3" stroke-width="0.5" stroke-miterlimit="10" d="M-166.9,157.8c0,0,345.8-24.6,606.5,71.4
				c459.9,169.3,834.3,215.4,924.8,228.3"/>
			<path fill="none" stroke="#C1C1C1" stroke-width="0.5" stroke-miterlimit="10" d="M-190.1,181c0,0,316.9-42.7,575.7,54.4
				c485.7,182.4,884.2,206.8,987.6,221.6"/>
			<path fill="none" stroke="#BFBFBF" stroke-width="0.5" stroke-miterlimit="10" d="M-213.2,205.6c0,0,288-60.7,544.7,37.5
				c511.5,195.8,934.1,198.4,1050.4,215.1"/>
			<path fill="none" stroke="#BCBCBC" stroke-width="0.5" stroke-miterlimit="10" d="M-236.4,230.9c0,0,259.1-78.8,513.6,20.5
				c537,209.4,984,190.1,1113.4,208.5"/>
			<path fill="none" stroke="#BABABA" stroke-width="0.5" stroke-miterlimit="10" d="M-259.6,256.9c0,0,230.2-96.5,482.8,3.8
				c562.6,223.3,1033.9,181.7,1176.2,202"/>
			<path fill="none" stroke="#BCBCBC" stroke-width="0.5" stroke-miterlimit="10" d="M-365.8,314.7c0,0,267.7-53.7,513.9,48.2
				c538,220.2,1058,183.6,1232.6,141.6"/>
			<path fill="none" stroke="#BFBFBF" stroke-width="0.5" stroke-miterlimit="10" d="M-472.1,370.3c0,0,304.9-9.8,544.9,92.4
				c512.7,219,1082.2,185.8,1288.9,81.2"/>
			<path fill="none" stroke="#C1C1C1" stroke-width="0.5" stroke-miterlimit="10" d="M-578.3,431.5c0,0,342.4,33.4,575.9,136.8
				c487.8,216.3,1106.3,187.7,1345.3,21"/>
			<path fill="none" stroke="#C3C3C3" stroke-width="0.5" stroke-miterlimit="10" d="M-684.6,492.1c0,0,379.9,76.6,606.7,181.2
				c463,213.7,1130.4,189.6,1401.9-39.4"/>
			<path fill="none" stroke="#C5C5C5" stroke-width="0.5" stroke-miterlimit="10" d="M-790.8,552.5c0,0,417.4,119.6,637.8,225.6
				C285.3,989,1001.5,969.9,1305.2,678.4"/>
			<path fill="none" stroke="#C8C8C8" stroke-width="0.5" stroke-miterlimit="10" d="M-897.1,612.5c0,0,454.9,162.6,668.8,270.1
				c413.8,208,1178.6,193.7,1514.6-160"/>
			<path fill="none" stroke="#CACACA" stroke-width="0.5" stroke-miterlimit="10" d="M-1003.4,672.2c0,0,492.6,205.6,699.9,314.5
				c389.2,204.6,1202.7,195.8,1571-220.4"/>
			<path fill="none" stroke="#CCCCCC" stroke-width="0.5" stroke-miterlimit="10" d="M-1109.6,731.6c0,0,530.3,248.3,730.9,358.9
				c365.1,201.3,1227.1,198,1627.5-280.6"/>
			<path fill="none" stroke="#CECECE" stroke-width="0.5" stroke-miterlimit="10" d="M-1215.9,791.1c0,0,568.1,290.8,762,403.3
				c340.5,197.5,1251,199.9,1683.9-341"/>
			<path fill="none" stroke="#D1D1D1" stroke-width="0.5" stroke-miterlimit="10" d="M-1321.9,850.3c0,0,605.8,333.3,793,447.7
				c316.6,193.4,1275.1,201.8,1740.2-401.4"/>
			<path fill="none" stroke="#D3D3D3" stroke-width="0.5" stroke-miterlimit="10" d="M-1428.2,909.7c0,0,644,375.6,824,492.1
				c292.7,189.4,1299.2,203.7,1796.6-461.8"/>
		</g>
	</g>
</g>
</svg>
