<?xml version="1.0" encoding="utf-8"?>
<!-- Generator: Adobe Illustrator 18.1.1, SVG Export Plug-In . SVG Version: 6.00 Build 0)  -->
<svg version="1.1" id="Layer_1" xmlns="http://www.w3.org/2000/svg" xmlns:xlink="http://www.w3.org/1999/xlink" x="0px" y="0px"
	 viewBox="0 155.2 612 481.6" enable-background="new 0 155.2 612 481.6" xml:space="preserve">
<g>
	<g>
		<defs>
			<rect id="SVGID_1_" y="155.2" width="612" height="481.6"/>
		</defs>
		<clipPath id="SVGID_2_">
			<use xlink:href="#SVGID_1_"  overflow="visible"/>
		</clipPath>
		<g clip-path="url(#SVGID_2_)">
			<path fill="none" stroke="#BABABA" stroke-width="0.5" stroke-miterlimit="10" d="M1091.9,1802c0,0-108.3-342.5-645.7-117.4
				c-438.5,183.8-775.4-347-775.4-347"/>
			<path fill="none" stroke="#BABABA" stroke-width="0.5" stroke-miterlimit="10" d="M1091.9,1740.7c0,0-129.2-287.9-652.1-70.9
				C20.7,1844.3-299,1348.9-357.3,1326.3"/>
			<path fill="none" stroke="#BABABA" stroke-width="0.5" stroke-miterlimit="10" d="M1091.9,1674c0,0-150.1-233-658.8-24.4
				c-399.9,164.9-702.6-295.3-818.7-340.3"/>
			<path fill="none" stroke="#BABABA" stroke-width="0.5" stroke-miterlimit="10" d="M1092.1,1590.3c0,0-171-178.4-665.2,22.1
				C46.5,1768-239.2,1343-413.4,1275.4"/>
			<path fill="none" stroke="#BABABA" stroke-width="0.5" stroke-miterlimit="10" d="M1092.1,1506.7c0,0-191.9-123.5-671.6,68.7
				C59.3,1721.5-209.2,1332-441.7,1241.7"/>
			<path fill="none" stroke="#BABABA" stroke-width="0.5" stroke-miterlimit="10" d="M1092.1,1423c0,0-212.9-68.9-677.9,115.2
				C72.3,1675-179.4,1320.6-469.8,1207.7"/>
			<path fill="none" stroke="#BABABA" stroke-width="0.5" stroke-miterlimit="10" d="M1092.1,1339.3c0,0-234.3-15-684.6,161.7
				c-322.6,126.7-556.9-191.7-905.6-327"/>
			<path fill="none" stroke="#BABABA" stroke-width="0.5" stroke-miterlimit="10" d="M1092.1,1255.7c0,0-255.2,39.6-691,208.2
				C97.9,1581.2-119.3,1298-526.1,1140"/>
			<path fill="none" stroke="#BABABA" stroke-width="0.5" stroke-miterlimit="10" d="M1092.1,1172c0,0-276.1,94.5-697.4,254.7
				c-284,107.8-484-140-948.9-320.4"/>
			<path fill="none" stroke="#BABABA" stroke-width="0.5" stroke-miterlimit="10" d="M1092.1,1088.3c0,0-296.8,150.1-703.8,301.2
				c-264.3,98.9-447.9-114.2-970.8-317.4"/>
			<path fill="none" stroke="#BABABA" stroke-width="0.5" stroke-miterlimit="10" d="M1092.1,1021.4c0,0-317.7,205-710.4,347.7
				c-244.8,89.6-411.2-88.3-992.2-314"/>
			<path fill="none" stroke="#BABABA" stroke-width="0.5" stroke-miterlimit="10" d="M1092.1,962.6c0,0-338.9,259.6-716.8,394.2
				c-225.4,80-374.8-62.5-1014.1-310.8"/>
			<path fill="none" stroke="#BABABA" stroke-width="0.5" stroke-miterlimit="10" d="M1166.4,965.8c0,0-398.4,199.3-761.6,296
				c-228.6,61-464.4-81.5-1097.8-249.3"/>
			<path fill="none" stroke="#BABABA" stroke-width="0.5" stroke-miterlimit="10" d="M1240.5,968.5c0,0-460.4,136.6-806.4,198.1
				C200.6,1207.9-119.8,1066-747.3,978.3"/>
			<path fill="none" stroke="#BABABA" stroke-width="0.5" stroke-miterlimit="10" d="M1314.8,984c0,0-524.4,71.1-851.2,99.9
				c-239.9,21.2-643.5-119.6-1265.1-127"/>
			<path fill="none" stroke="#BABABA" stroke-width="0.5" stroke-miterlimit="10" d="M1389.1,1013.3c0,0-590.1,2.2-896,2
				c-247.8-0.5-733.1-138.8-1348.8-65.7"/>
			<path fill="none" stroke="#BABABA" stroke-width="0.5" stroke-miterlimit="10" d="M1463.4,1008.4c0,0-656.5-69.9-940.8-96.2
				C266,888.3-300,754.4-909.8,907.5"/>
			<path fill="none" stroke="#BABABA" stroke-width="0.5" stroke-miterlimit="10" d="M1537.8,1008.9c0,0-723.2-145.2-985.5-194.4
				C286.7,764.8-360,637.5-963.9,871.1"/>
			<path fill="none" stroke="#BABABA" stroke-width="0.5" stroke-miterlimit="10" d="M1611.8,1012.6c0,0-789.2-223.2-1030.3-292.3
				C307.8,641.7-420.3,524.1-1018.3,838.1"/>
			<path fill="none" stroke="#BABABA" stroke-width="0.5" stroke-miterlimit="10" d="M1686.1,1018.2c0,0-853.7-303.4-1075.1-390.5
				C331,517.4-480.3,412.6-1072.4,806.6"/>
			<path fill="none" stroke="#BABABA" stroke-width="0.5" stroke-miterlimit="10" d="M1760.5,1024.9c0,0-916.6-384.6-1119.9-488.5
				C356.3,391.2-540.4,302.1-1126.6,776.6"/>
			<path fill="none" stroke="#BABABA" stroke-width="0.5" stroke-miterlimit="10" d="M1834.8,1032.7c0,0-977.2-466.3-1164.4-586.7
				C385.1,263.2-600.4,192.6-1180.4,747.5"/>
			<path fill="none" stroke="#BABABA" stroke-width="0.5" stroke-miterlimit="10" d="M1908.8,1041.1c0,0-1035.7-547.8-1209.2-684.6
				C417.6,134-660.5,83.8-1234.8,719"/>
		</g>
	</g>
</g>
</svg>
