<?xml version="1.0" encoding="utf-8"?>
<!-- Generator: Adobe Illustrator 18.1.1, SVG Export Plug-In . SVG Version: 6.00 Build 0)  -->
<svg version="1.1" id="Layer_1" xmlns="http://www.w3.org/2000/svg" xmlns:xlink="http://www.w3.org/1999/xlink" x="0px" y="0px"
	 viewBox="0 162.4 612 467.3" enable-background="new 0 162.4 612 467.3" xml:space="preserve">
<g>
	<g>
		<defs>
			<rect id="SVGID_1_" y="162.4" width="612" height="467.3"/>
		</defs>
		<clipPath id="SVGID_2_">
			<use xlink:href="#SVGID_1_"  overflow="visible"/>
		</clipPath>
		<g clip-path="url(#SVGID_2_)">
			<path fill="none" stroke="#BABABA" stroke-width="0.5" stroke-miterlimit="10" d="M-467.3,43.4c0,0,135.6,321.2,634.4,54.9
				c407.1-217.3,780.3,265,780.3,265"/>
			<path fill="none" stroke="#BABABA" stroke-width="0.5" stroke-miterlimit="10" d="M-460.6,127.7c0,0,150.9,266.5,636.6,9.3
				c389.2-206.3,742.9,243.6,801.1,260"/>
			<path fill="none" stroke="#BABABA" stroke-width="0.5" stroke-miterlimit="10" d="M-453.7,212.3c0,0,166.2,211.6,638.5-36.1
				C556.1-19.4,890.2,397.8,1006.5,431"/>
			<path fill="none" stroke="#BABABA" stroke-width="0.5" stroke-miterlimit="10" d="M-446.8,296.8c0,0,181.5,156.9,640.7-81.7
				C547.3,30.3,861.8,415,1036.3,464.7"/>
			<path fill="none" stroke="#BABABA" stroke-width="0.5" stroke-miterlimit="10" d="M-439.8,381.3c0,0,196.8,102,642.6-127
				c335.5-173.8,630.4,178.1,863.2,244.3"/>
			<path fill="none" stroke="#BABABA" stroke-width="0.5" stroke-miterlimit="10" d="M-432.9,465.6c0,0,212,47.3,644.7-172.6
				c317.8-163.1,592.9,156.4,883.7,239.3"/>
			<path fill="none" stroke="#BABABA" stroke-width="0.5" stroke-miterlimit="10" d="M-426,550.1c0,0,227.8-6.7,646.6-218.2
				c300.1-151.4,555.4,134.9,904.5,234"/>
			<path fill="none" stroke="#BABABA" stroke-width="0.5" stroke-miterlimit="10" d="M-419.1,617.2c0,0,243.1-61.4,648.8-263.6
				c282.2-140.6,517.9,113.2,925,229"/>
			<path fill="none" stroke="#BABABA" stroke-width="0.5" stroke-miterlimit="10" d="M-412.1,676.5c0,0,258.4-116.3,650.7-309.2
				c264.3-129.9,480.2,91.5,945.8,223.7"/>
			<path fill="none" stroke="#BABABA" stroke-width="0.5" stroke-miterlimit="10" d="M-405.5,735.7c0,0,273.2-171.9,652.8-354.6
				c246.2-119.6,442.7,69.7,966.4,218.5"/>
			<path fill="none" stroke="#BABABA" stroke-width="0.5" stroke-miterlimit="10" d="M-398.5,795.1c0,0,288.4-226.8,654.7-400.2
				c228.5-108.6,405.2,48,987.1,213.5"/>
			<path fill="none" stroke="#BABABA" stroke-width="0.5" stroke-miterlimit="10" d="M-391.6,854.3c0,0,303.7-281.5,656.9-445.8
				C475.9,310.6,633,434.8,1273,616.8"/>
			<path fill="none" stroke="#BABABA" stroke-width="0.5" stroke-miterlimit="10" d="M-464,856.3c0,0,366.8-228.5,708.9-355.1
				c215.4-79.5,456.1,36.5,1083.1,141.6"/>
			<path fill="none" stroke="#BABABA" stroke-width="0.5" stroke-miterlimit="10" d="M-536.3,857.9c0,0,432.4-173.6,761.2-264.3
				c221.6-61.1,544.2,47,1158.1,75"/>
			<path fill="none" stroke="#BABABA" stroke-width="0.5" stroke-miterlimit="10" d="M-608.7,859.8c0,0,500.2-116.3,813.3-173.6
				c229.9-42.3,632.5,57.3,1233.6,8.1"/>
			<path fill="none" stroke="#BABABA" stroke-width="0.5" stroke-miterlimit="10" d="M-681.2,889.4c0,0,571.9-126.1,865.3-82.9
				c237.8,35.1,720.9,67.6,1309-58.5"/>
			<path fill="none" stroke="#BABABA" stroke-width="0.5" stroke-miterlimit="10" d="M-753.6,903.3c0,0,650.2-64,917.6,7.9
				c241.4,64.9,809,78.1,1384.2-125.1"/>
			<path fill="none" stroke="#BABABA" stroke-width="0.5" stroke-miterlimit="10" d="M-825.9,891.4c0,0,727.3,7.2,969.7,98.6
				c245.2,92.4,897.3,88.3,1459.4-192"/>
			<path fill="none" stroke="#BABABA" stroke-width="0.5" stroke-miterlimit="10" d="M-898.3,894.5c0,0,782.5,144.2,1021.8,189.1
				c271.5,51.1,985.5,98.9,1534.9-258.6"/>
			<path fill="none" stroke="#BABABA" stroke-width="0.5" stroke-miterlimit="10" d="M-970.7,881.8c0,0,852.2,215.9,1074,279.9
				c280.6,81.2,1073.8,109.1,1610.1-325.2"/>
			<path fill="none" stroke="#BABABA" stroke-width="0.5" stroke-miterlimit="10" d="M-1043,868.2c0,0,920.3,288.7,1126.1,370.6
				c287.7,114.6,1162.2,119.4,1685.3-391.8"/>
			<path fill="none" stroke="#BABABA" stroke-width="0.5" stroke-miterlimit="10" d="M-1115.4,855.1c0,0,986.4,362.2,1178.2,461.3
				c291.8,150.9,1250.3,129.9,1760.8-458.7"/>
			<path fill="none" stroke="#BABABA" stroke-width="0.5" stroke-miterlimit="10" d="M-1187.9,852.4c0,0,1050.2,435.5,1230.4,552.1
				c292.7,189.4,1338.6,140.2,1836-525.3"/>
		</g>
	</g>
</g>
</svg>
