<?xml version="1.0" encoding="utf-8"?>
<!-- Generator: Adobe Illustrator 18.1.1, SVG Export Plug-In . SVG Version: 6.00 Build 0)  -->
<svg version="1.1" id="Layer_1" xmlns="http://www.w3.org/2000/svg" xmlns:xlink="http://www.w3.org/1999/xlink" x="0px" y="0px"
	 viewBox="70.4 88.5 471.3 615" enable-background="new 70.4 88.5 471.3 615" xml:space="preserve">
<g>
	<g>
		<defs>
			
				<rect id="SVGID_1_" x="0" y="162.4" transform="matrix(6.528288e-003 -1 1 6.528288e-003 -91.9892 699.4083)" width="612" height="467.3"/>
		</defs>
		<clipPath id="SVGID_2_">
			<use xlink:href="#SVGID_1_"  overflow="visible"/>
		</clipPath>
		<g clip-path="url(#SVGID_2_)">
			<line fill="none" stroke="#CECECE" stroke-width="0.5" stroke-miterlimit="10" x1="1230.2" y1="-471.1" x2="901.2" y2="-916.7"/>
			<path fill="none" stroke="#CECECE" stroke-width="0.5" stroke-miterlimit="10" d="M1160.6-348.3c0,0-184.4-242.1-195.1-255.3
				c-7.8-9.6-151-201.8-151-201.8"/>
			<path fill="none" stroke="#CECECE" stroke-width="0.5" stroke-miterlimit="10" d="M1091-225.8c0,0-184.2-234.3-206-260.9
				c-15.6-19.2-157.2-208.1-157.2-208.1"/>
			<path fill="none" stroke="#CECECE" stroke-width="0.5" stroke-miterlimit="10" d="M1021.4-103.1c0,0-184.1-226.4-216.8-266.5
				c-23.5-28.8-163.6-214.1-163.6-214.1"/>
			<path fill="none" stroke="#CECECE" stroke-width="0.5" stroke-miterlimit="10" d="M951.9,19.5c0,0-183.9-218.7-227.5-272
				c-31.3-38.4-170-220.1-170-220.1"/>
			<path fill="none" stroke="#CECECE" stroke-width="0.5" stroke-miterlimit="10" d="M882.3,142.2c0,0-183.7-210.9-238.2-277.6
				c-39.1-48-176.4-226.3-176.4-226.3"/>
			<path fill="none" stroke="#CECECE" stroke-width="0.5" stroke-miterlimit="10" d="M812.7,264.8c0,0-183.7-203-248.9-282.9
				C516.9-75.8,381-250.5,381-250.5"/>
			<path fill="none" stroke="#CECECE" stroke-width="0.5" stroke-miterlimit="10" d="M743.2,387.5c0,0-183.5-195.1-259.6-288.5
				c-54.7-67.2-189.2-238.6-189.2-238.6"/>
			<path fill="none" stroke="#CECECE" stroke-width="0.5" stroke-miterlimit="10" d="M673.6,510c0,0-183.4-187.5-270.3-294
				C340.7,139.4,207.6-28.6,207.6-28.6"/>
			<path fill="none" stroke="#CECECE" stroke-width="0.5" stroke-miterlimit="10" d="M604,632.8c0,0-183.2-179.6-281-299.6
				C252.7,246.8,121,82.6,121,82.6"/>
			<path fill="none" stroke="#CECECE" stroke-width="0.5" stroke-miterlimit="10" d="M534.4,755.3c0,0-183-171.7-291.7-305.2
				c-78.2-96-208.5-256.9-208.5-256.9"/>
			<path fill="none" stroke="#CECECE" stroke-width="0.5" stroke-miterlimit="10" d="M501.2,766.8c0,0-183.2-179.6-281-299.6
				c-70.4-86.4-202-250.6-202-250.6"/>
			<path fill="none" stroke="#CECECE" stroke-width="0.5" stroke-miterlimit="10" d="M467.7,778.3c0,0-183.4-187.5-270.3-294
				C134.8,407.4,1.7,239.6,1.7,239.6"/>
			<path fill="none" stroke="#CECECE" stroke-width="0.5" stroke-miterlimit="10" d="M434.4,789.8c0,0-183.5-195.1-259.6-288.5
				C120.1,434.1-14.4,262.7-14.4,262.7"/>
			<path fill="none" stroke="#CECECE" stroke-width="0.5" stroke-miterlimit="10" d="M400.9,801.2c0,0-183.7-203-248.9-282.9
				C105.1,460.7-30.8,286-30.8,286"/>
			<path fill="none" stroke="#CECECE" stroke-width="0.5" stroke-miterlimit="10" d="M367.6,812.5c0,0-183.7-210.9-238.2-277.6
				C90.4,486.9-47,308.6-47,308.6"/>
			<path fill="none" stroke="#CECECE" stroke-width="0.5" stroke-miterlimit="10" d="M334.1,824c0,0-183.9-218.7-227.5-272
				c-31.3-38.4-170-220.1-170-220.1"/>
			<path fill="none" stroke="#CECECE" stroke-width="0.5" stroke-miterlimit="10" d="M300.9,835.5c0,0-184.1-226.4-216.8-266.5
				C60.7,540.2-79.5,354.9-79.5,354.9"/>
			<path fill="none" stroke="#CECECE" stroke-width="0.5" stroke-miterlimit="10" d="M267.4,846.9c0,0-184.2-234.3-206-260.9
				C45.7,566.8-95.9,378-95.9,378"/>
			<path fill="none" stroke="#CECECE" stroke-width="0.5" stroke-miterlimit="10" d="M234.1,858.4c0,0-184.4-242.1-195.1-255.3
				c-7.8-9.6-151-201.8-151-201.8"/>
			<line fill="none" stroke="#CECECE" stroke-width="0.5" stroke-miterlimit="10" x1="200.6" y1="869.7" x2="-128.4" y2="424.1"/>
		</g>
	</g>
</g>
</svg>
