<?xml version="1.0" encoding="utf-8"?>
<!-- Generator: Adobe Illustrator 18.1.1, SVG Export Plug-In . SVG Version: 6.00 Build 0)  -->
<svg version="1.1" id="Layer_1" xmlns="http://www.w3.org/2000/svg" xmlns:xlink="http://www.w3.org/1999/xlink" x="0px" y="0px"
	 viewBox="0 166.8 612 458.5" enable-background="new 0 166.8 612 458.5" xml:space="preserve">
<g>
	<g>
		<defs>
			<rect id="SVGID_1_" y="166.8" width="612" height="458.5"/>
		</defs>
		<clipPath id="SVGID_2_">
			<use xlink:href="#SVGID_1_"  overflow="visible"/>
		</clipPath>
		<g clip-path="url(#SVGID_2_)">
			<path fill="none" stroke="#CECECE" stroke-width="0.5" stroke-miterlimit="10" d="M327.4,2096.8c0,0-426.7-308.7-626.8-491.9
				s-281.3-433.9-281.3-433.9"/>
			<path fill="none" stroke="#CCCCCC" stroke-width="0.5" stroke-miterlimit="10" d="M397.6,1937.3c0,0-439.4-246.7-632.3-441.5
				C-421,1307.9-531.1,1093-573.8,1055.5"/>
			<path fill="none" stroke="#CACACA" stroke-width="0.5" stroke-miterlimit="10" d="M468,1778.1c0,0-451.8-184.1-637.8-391.1
				c-172.6-192-311.6-372-396.9-447"/>
			<path fill="none" stroke="#C9C9C9" stroke-width="0.5" stroke-miterlimit="10" d="M538.2,1618.6c0,0-464.7-121.1-643.3-340.5
				C-264.6,1082.3-432,936.8-559.7,824.4"/>
			<path fill="none" stroke="#C7C7C7" stroke-width="0.5" stroke-miterlimit="10" d="M608.4,1459.3c0,0-477.8-57.8-649-290.1
				C-187,970-382.8,858.8-553,708.8"/>
			<path fill="none" stroke="#C5C5C5" stroke-width="0.5" stroke-miterlimit="10" d="M678.6,1299.8c0,0-491.4,6-654.5-239.7
				c-134-201.8-357.5-279.4-570.5-467.1"/>
			<path fill="none" stroke="#C3C3C3" stroke-width="0.5" stroke-miterlimit="10" d="M748.8,1136c0,0-505.3,70.2-660-189.1
				C-33,742.5-283.9,698.5-539.4,473.1"/>
			<path fill="none" stroke="#C1C1C1" stroke-width="0.5" stroke-miterlimit="10" d="M819.3,964.3c0,0-519.8,134.7-665.5-138.7
				C43.5,618.8-234.2,608-532.5,345.4"/>
			<path fill="none" stroke="#C0C0C0" stroke-width="0.5" stroke-miterlimit="10" d="M889.5,787.8c0,0-534.9,199.4-671-88.1
				c-98.9-209.2-403.3-186.7-744-487.1"/>
			<path fill="none" stroke="#BEBEBE" stroke-width="0.5" stroke-miterlimit="10" d="M959.7,608.5c0,0-550.6,264.1-676.5-37.7
				C195.1,359.7-135.4,415.1-518.9,77.2"/>
			<path fill="none" stroke="#BCBCBC" stroke-width="0.5" stroke-miterlimit="10" d="M1029.9,427.5c0,0-567.1,329-682,12.7
				C270.3,226.9-85.7,315.5-512-59.8"/>
			<path fill="none" stroke="#BABABA" stroke-width="0.5" stroke-miterlimit="10" d="M1100.3,245.6c0,0-584.3,394-687.7,63.3
				C345.3,93.2-36.3,215-505-198.1"/>
			<path fill="none" stroke="#BCBCBC" stroke-width="0.5" stroke-miterlimit="10" d="M1094.8,267.8c0,0-574.3,339.5-669.3,10.7
				C359.6,50.2-39.2,183-488.5-208.6"/>
			<path fill="none" stroke="#BEBEBE" stroke-width="0.5" stroke-miterlimit="10" d="M1089.3,289c0,0-564,285.1-650.9-41.5
				C374.2,6.3-42.3,150.1-472.1-220.1"/>
			<path fill="none" stroke="#C0C0C0" stroke-width="0.5" stroke-miterlimit="10" d="M1083.8,308.6c0,0-553,230.2-632.5-94.1
				C389.2-39.3-45.1,115.7-455.8-233"/>
			<path fill="none" stroke="#C1C1C1" stroke-width="0.5" stroke-miterlimit="10" d="M1078.3,326c0,0-541.8,175.5-614.1-146.4
				C404.3-87.3-48.2,78.9-439.4-248"/>
			<path fill="none" stroke="#C3C3C3" stroke-width="0.5" stroke-miterlimit="10" d="M1072.9,340.4c0,0-530.1,120.3-595.8-198.9
				c-57.5-279.6-528.2-102.2-900-407.8"/>
			<path fill="none" stroke="#C5C5C5" stroke-width="0.5" stroke-miterlimit="10" d="M1067.4,350.4c0,0-518.2,65.4-577.4-251.2
				C435.3-193.8-54-4.9-406.4-289.1"/>
			<path fill="none" stroke="#C7C7C7" stroke-width="0.5" stroke-miterlimit="10" d="M1061.9,354.7c0,0-506,10.3-559-303.7
				C451.1-254.9-57.1-54.6-389.9-317.2"/>
			<path fill="none" stroke="#C9C9C9" stroke-width="0.5" stroke-miterlimit="10" d="M1056.4,356.4c0,0-493.6-44.9-540.8-356
				C467.1-318.7-60.2-106.9-373.7-348"/>
			<path fill="none" stroke="#CACACA" stroke-width="0.5" stroke-miterlimit="10" d="M1051.1,358c0,0-480.7-100-522.5-408.6
				C484-382.7-62.8-159.4-357-379.1"/>
			<path fill="none" stroke="#CCCCCC" stroke-width="0.5" stroke-miterlimit="10" d="M1045.6,359.7c0,0-467.8-155-504.1-460.9
				C500.7-446.4-65.9-211.7-340.7-409.9"/>
			<path fill="none" stroke="#CECECE" stroke-width="0.5" stroke-miterlimit="10" d="M1040.1,361.4c0,0-454.9-210.1-485.7-513.4
				C517.9-510.4-68.8-264.2-324.3-440.9"/>
		</g>
	</g>
</g>
</svg>
