<?xml version="1.0" encoding="utf-8"?>
<!-- Generator: Adobe Illustrator 18.1.1, SVG Export Plug-In . SVG Version: 6.00 Build 0)  -->
<svg version="1.1" id="Layer_1" xmlns="http://www.w3.org/2000/svg" xmlns:xlink="http://www.w3.org/1999/xlink" x="0px" y="0px"
	 viewBox="0 0 256.3 195.7" enable-background="new 0 0 256.3 195.7" xml:space="preserve">
<g>
	<defs>
		<rect id="SVGID_1_" y="0" width="256.3" height="195.7"/>
	</defs>
	<clipPath id="SVGID_2_">
		<use xlink:href="#SVGID_1_"  overflow="visible"/>
	</clipPath>
	<g clip-path="url(#SVGID_2_)">
		<path fill="none" stroke="#E2E2E2" stroke-width="0.5" stroke-miterlimit="10" d="M-578.5,521.8c0,0,32.3-173.6,61.7-262.4
			c29.4-88.7,106.5-158.6,106.5-158.6"/>
		<path fill="none" stroke="#E2E2E2" stroke-width="0.5" stroke-miterlimit="10" d="M-503.8,508.3c0,0,4.1-166.5,41.9-254.1
			c38.6-89.7,105.9-164.8,90.5-176.9"/>
		<path fill="none" stroke="#E2E2E2" stroke-width="0.5" stroke-miterlimit="10" d="M-428.2,494.8c0,0-23.8-159.4,22.2-245.9
			c48.1-90.6,105.3-171,74.5-195.2"/>
		<path fill="none" stroke="#E2E2E2" stroke-width="0.5" stroke-miterlimit="10" d="M-349.4,481.3c0,0-51.5-152.2,2.4-237.7
			C-289.2,152-242.3,66.3-288.5,30"/>
		<path fill="none" stroke="#E2E2E2" stroke-width="0.5" stroke-miterlimit="10" d="M-270.7,467.7c0,0-79.1-145-17.3-229.5
			c67.6-92.4,104-183.5,42.5-231.8"/>
		<path fill="none" stroke="#E2E2E2" stroke-width="0.5" stroke-miterlimit="10" d="M-192.4,454.2c0,0-106.6-137.7-37.1-221.3
			c77.6-93.2,103.4-189.7,26.4-250.1"/>
		<path fill="none" stroke="#E2E2E2" stroke-width="0.5" stroke-miterlimit="10" d="M-114.7,440.7c0,0-134-130.3-56.8-213
			c87.6-93.9,102.8-195.9,10.4-268.4"/>
		<path fill="none" stroke="#E2E2E2" stroke-width="0.5" stroke-miterlimit="10" d="M-38.5,427.2c0,0-161.4-122.8-76.5-204.8
			c97.7-94.4,102.1-202.1-5.6-286.7"/>
		<path fill="none" stroke="#E2E2E2" stroke-width="0.5" stroke-miterlimit="10" d="M29.7,413.6c0,0-188.7-115.3-96.3-196.6
			C41.3,122.1,35,8.7-88.2-88"/>
		<path fill="none" stroke="#E2E2E2" stroke-width="0.5" stroke-miterlimit="10" d="M103.6,400.1c0,0-216-107.6-116-188.4
			c118-95.3,100.9-214.5-37.6-323.3"/>
		<path fill="none" stroke="#E2E2E2" stroke-width="0.5" stroke-miterlimit="10" d="M179.3,386.6c0,0-243.3-100-135.8-180.2
			C171.8,110.7,143.9-14.3-10-135.2"/>
		<path fill="none" stroke="#E2E2E2" stroke-width="0.5" stroke-miterlimit="10" d="M255.1,373.1c0,0-270.6-92.2-155.5-172
			C238.1,105.2,199.3-25.8,30-158.8"/>
		<path fill="none" stroke="#E2E2E2" stroke-width="0.5" stroke-miterlimit="10" d="M261.4,372c0,0-258.5-101.3-144.2-179.8
			c137.3-94.3,84.3-227.6-78.9-351.7"/>
		<path fill="none" stroke="#E2E2E2" stroke-width="0.5" stroke-miterlimit="10" d="M267.6,370.9c0,0-246.5-110.3-133-187.6
			c136.1-92.8,68.9-228.2-88.2-343.6"/>
		<path fill="none" stroke="#E2E2E2" stroke-width="0.5" stroke-miterlimit="10" d="M273.8,369.8c0,0-234.4-119.3-121.7-195.4
			C287,83.2,205.6-54.5,54.6-161"/>
		<path fill="none" stroke="#E2E2E2" stroke-width="0.5" stroke-miterlimit="10" d="M280.1,368.7c0,0-222.4-128.3-110.5-203.2
			C303.4,75.9,207.8-64,62.8-161.7"/>
		<path fill="none" stroke="#E2E2E2" stroke-width="0.5" stroke-miterlimit="10" d="M286.3,367.7c0,0-210.3-137.3-99.2-211.1
			c132.6-88.1,22.8-230.1-116-319"/>
		<path fill="none" stroke="#E2E2E2" stroke-width="0.5" stroke-miterlimit="10" d="M292.6,366.6c0,0-198.3-146.4-88-218.9
			C336,61.2,212-83.1,79.3-163.2"/>
		<path fill="none" stroke="#E2E2E2" stroke-width="0.5" stroke-miterlimit="10" d="M298.8,365.5c0,0-186.2-155.4-76.7-226.7
			c130.3-84.9-7.9-231.4-134.6-302.7"/>
		<path fill="none" stroke="#E2E2E2" stroke-width="0.5" stroke-miterlimit="10" d="M305,364.4c0,0-174.2-164.4-65.5-234.5
			c129.1-83.4-23.3-232.1-143.8-294.5"/>
		<path fill="none" stroke="#E2E2E2" stroke-width="0.5" stroke-miterlimit="10" d="M311.3,363.3c0,0-162.1-173.4-54.2-242.4
			c128-81.8-38.6-232.7-153.1-286.3"/>
		<path fill="none" stroke="#E2E2E2" stroke-width="0.5" stroke-miterlimit="10" d="M317.3,362.3c0,0-150.1-182.4-43-250.2
			c126.8-80.2-54-233.4-162.4-278.2"/>
		<path fill="none" stroke="#E2E2E2" stroke-width="0.5" stroke-miterlimit="10" d="M319.2,361.2c0,0-138-191.5-31.7-258
			c125.7-78.7-69.4-234-171.6-270"/>
	</g>
</g>
</svg>
