<?xml version="1.0" encoding="utf-8"?>
<!-- Generator: Adobe Illustrator 18.1.1, SVG Export Plug-In . SVG Version: 6.00 Build 0)  -->
<svg version="1.1" id="Layer_1" xmlns="http://www.w3.org/2000/svg" xmlns:xlink="http://www.w3.org/1999/xlink" x="0px" y="0px"
	 viewBox="72.2 89.9 467.7 612.3" enable-background="new 72.2 89.9 467.7 612.3" xml:space="preserve">
<g>
	<g>
		<defs>
			
				<rect id="SVGID_1_" x="0" y="162.4" transform="matrix(-6.134947e-004 -1 1 -6.134947e-004 -89.8122 702.2429)" width="612" height="467.3"/>
		</defs>
		<clipPath id="SVGID_2_">
			<use xlink:href="#SVGID_1_"  overflow="visible"/>
		</clipPath>
		<g clip-path="url(#SVGID_2_)">
			<path fill="none" stroke="#BABABA" stroke-width="0.5" stroke-miterlimit="10" d="M658.1-377.5c0,0-321.1,135.8-54.5,634.5
				C821.1,664,339,1037.5,339,1037.5"/>
			<path fill="none" stroke="#BABABA" stroke-width="0.5" stroke-miterlimit="10" d="M573.8-370.8c0,0-266.4,151.1-8.9,636.6
				c206.5,389.1-243.1,743-259.5,801.3"/>
			<path fill="none" stroke="#BABABA" stroke-width="0.5" stroke-miterlimit="10" d="M489.3-363.8c0,0-211.5,166.3,36.4,638.5
				c195.8,371.2-221.2,705.5-254.3,821.8"/>
			<path fill="none" stroke="#BABABA" stroke-width="0.5" stroke-miterlimit="10" d="M404.8-356.8c0,0-156.8,181.6,82.1,640.6
				c185,353.3-199.5,668-249,842.6"/>
			<path fill="none" stroke="#BABABA" stroke-width="0.5" stroke-miterlimit="10" d="M320.2-349.8c0,0-101.8,196.8,127.4,642.5
				C621.7,628,269.9,923.1,203.9,1156"/>
			<path fill="none" stroke="#BABABA" stroke-width="0.5" stroke-miterlimit="10" d="M235.9-342.9c0,0-47.1,212.1,173,644.6
				c163.3,317.7-156,593-238.7,883.9"/>
			<path fill="none" stroke="#BABABA" stroke-width="0.5" stroke-miterlimit="10" d="M151.4-335.9c0,0,6.8,227.8,218.6,646.5
				c151.6,300.1-134.6,555.5-233.5,904.7"/>
			<path fill="none" stroke="#BABABA" stroke-width="0.5" stroke-miterlimit="10" d="M84.3-328.9c0,0,61.5,243,264,648.6
				c140.8,282.2-112.9,518-228.4,925.2"/>
			<path fill="none" stroke="#BABABA" stroke-width="0.5" stroke-miterlimit="10" d="M25.1-322c0,0,116.4,258.3,309.6,650.5
				c130.1,264.3-91.2,480.2-223.2,946"/>
			<path fill="none" stroke="#BABABA" stroke-width="0.5" stroke-miterlimit="10" d="M-34.1-315.2c0,0,172.1,273.1,355,652.6
				c119.8,246.1-69.5,442.7-217.9,966.5"/>
			<path fill="none" stroke="#BABABA" stroke-width="0.5" stroke-miterlimit="10" d="M-93.6-308.3c0,0,227,288.3,400.6,654.5
				c108.8,228.4-47.7,405.2-212.9,987.3"/>
			<path fill="none" stroke="#BABABA" stroke-width="0.5" stroke-miterlimit="10" d="M-152.8-301.3c0,0,281.7,303.6,446.2,656.6
				c98,210.5-26,367.7-207.6,1007.8"/>
			<path fill="none" stroke="#BABABA" stroke-width="0.5" stroke-miterlimit="10" d="M-154.7-373.7c0,0,228.7,366.6,355.5,708.7
				c79.6,215.3-36.3,456.1-140.9,1083.2"/>
			<path fill="none" stroke="#BABABA" stroke-width="0.5" stroke-miterlimit="10" d="M-156.4-446c0,0,173.9,432.3,264.8,761.1
				c61.3,221.6-46.7,544.2-74.3,1158.1"/>
			<path fill="none" stroke="#BABABA" stroke-width="0.5" stroke-miterlimit="10" d="M-158.4-518.4c0,0,116.6,500.2,174.1,813.2
				c42.4,229.9-56.9,632.6-7.4,1233.6"/>
			<path fill="none" stroke="#BABABA" stroke-width="0.5" stroke-miterlimit="10" d="M-188-590.9c0,0,126.4,571.8,83.4,865.3
				c-35,237.8-67.1,720.9,59.3,1309"/>
			<path fill="none" stroke="#BABABA" stroke-width="0.5" stroke-miterlimit="10" d="M-201.9-663.3c0,0,64.4,650.2-7.3,917.6
				c-64.8,241.4-77.6,809,126,1384.1"/>
			<path fill="none" stroke="#BABABA" stroke-width="0.5" stroke-miterlimit="10" d="M-190-735.6c0,0-6.7,727.3-98,969.8
				c-92.3,245.3-87.8,897.4,192.9,1459.3"/>
			<path fill="none" stroke="#BABABA" stroke-width="0.5" stroke-miterlimit="10" d="M-193.2-808c0,0-143.7,782.6-188.5,1021.9
				c-50.9,271.5-98.3,985.5,259.5,1534.7"/>
			<path fill="none" stroke="#BABABA" stroke-width="0.5" stroke-miterlimit="10" d="M-180.6-880.4c0,0-215.3,852.3-279.2,1074.2
				c-81,280.6-108.5,1073.9,326.2,1609.9"/>
			<path fill="none" stroke="#BABABA" stroke-width="0.5" stroke-miterlimit="10" d="M-167-952.7c0,0-288.1,920.4-369.9,1126.3
				C-651.4,461.4-655.6,1335.8-144,1858.7"/>
			<path fill="none" stroke="#BABABA" stroke-width="0.5" stroke-miterlimit="10" d="M-153.9-1025.1c0,0-361.6,986.6-460.6,1178.4
				c-150.7,291.9-129.1,1250.3,459.8,1760.5"/>
			<path fill="none" stroke="#BABABA" stroke-width="0.5" stroke-miterlimit="10" d="M-151.3-1097.7c0,0-434.9,1050.4-551.3,1230.8
				C-891.8,426-842,1471.8-176.2,1968.8"/>
		</g>
	</g>
</g>
</svg>
