<?xml version="1.0" encoding="utf-8"?>
<!-- Generator: Adobe Illustrator 18.1.1, SVG Export Plug-In . SVG Version: 6.00 Build 0)  -->
<svg version="1.1" id="Layer_1" xmlns="http://www.w3.org/2000/svg" xmlns:xlink="http://www.w3.org/1999/xlink" x="0px" y="0px"
	 viewBox="0 0 585.6 133.4" enable-background="new 0 0 585.6 133.4" xml:space="preserve">
<g>
	<g>
		<path fill-rule="evenodd" clip-rule="evenodd" fill="#DF2D3E" d="M222.2,13.9c-2.2,3.9-4.7,7.6-7.4,11.2c-1.4,1.8-2.8,3.5-4.2,5.2
			c-0.7,0.8-1.5,1.7-2.2,2.5c-0.9,0.9-1.7,1.4-3.1,1.2c-1.3-0.2-2-1-2.7-1.9c-0.8-0.8-1.5-1.7-2.2-2.5c-1.5-1.7-2.9-3.5-4.2-5.3
			c-2.7-3.6-5.2-7.3-7.4-11.2c-0.5-0.8-0.5-1.5-0.2-2.3c1.2-4,5.7-0.9,7.6-3.9c0.4-0.7,0.4-1.3,0.4-2c0-2.4-1.3-2.2-3.3-2.2
			c-0.5,0-1.1,0-1.6,0c-5.9,0-11.9,0-17.8,0c-5.9,0-11.8,0-17.8,0c-0.7,0-1.3-0.1-2,0.2c-1.2,0.4-1,2.2-0.9,3.1
			c0.2,1.2,1.2,2.1,2.4,2.4c1.2,0.3,2.4,0.3,3.5,0.4c1.2,0.1,2.3,0.2,3.3,1.2c0.3,0.3,0.6,0.7,0.9,1c7.5,8.9,14.4,18.2,20.8,27.9
			c0.3,0.4,2.1,3.2,2.3,3.7c0.2,0.6,0.4,3.7,0.5,4.3c0.2,2.9,0.4,5.7,0.4,8.6c0.1,5.7-0.1,11.4-0.7,17.2c-0.1,1.2-1,2.3-2.2,2.6
			c-1.2,0.3-2.4,0.3-3.7,0.5c-1.3,0.1-2.4,0-3.4,1.2c-0.7,0.9-0.9,2.5-0.7,3.4c0.2,1.3,1.7,1.3,2.7,1.2c6.4,0,12.8,0,19.2,0
			c3.2,0,6.4,0,9.6,0c3.2,0,6.4,0.1,9.6-0.1c1.3-0.4,1.2-1.6,1.1-2.6l-0.1-0.6c-0.1-0.4-0.2-0.7-0.4-1c-0.2-0.3-0.4-0.6-0.7-0.8
			l-0.4-0.3c-0.8-0.4-1.6-0.4-2.4-0.5c-1.2-0.2-2.3-0.2-3.4-0.4c-2.7-0.5-2.6-2.3-2.8-4.3c-0.1-0.7-0.2-1.4-0.3-2.1
			c-0.2-1.4-0.3-2.8-0.4-4.2c-0.6-8.1-0.3-16,0.8-24c0.2-1.1,0.8-1.8,1.4-2.7c0.6-0.9,1.1-1.7,1.7-2.5c1.1-1.7,2.3-3.3,3.5-5
			c2.3-3.3,4.7-6.6,7.2-9.8c2.4-3.2,4.9-6.4,7.5-9.6c0.3-0.4,0.6-0.9,1-1.2l0.7-0.5c0.5-0.3,1.1-0.3,1.6-0.4c1-0.1,1.9-0.2,2.9-0.3
			c0.7-0.1,1.4-0.1,2-0.3c1.1-0.3,1.9-1.2,2.2-2.2c0.1-0.5,0.1-1,0.1-1.5c0-2.1-1.7-1.8-3.2-1.8c-0.7,0-1.5,0-2.2,0
			c-2.2,0-4.4,0-6.7,0c-4.4,0-8.9,0-13.3,0c-0.7,0-1.4,0-2.2,0c-0.3,0-0.7,0-1.1,0c-1.3,0-2.4,0-2.5,1.5c-0.1,1.2-0.1,2.1,0.7,3.1
			c0.8,0.9,1.8,1,3,1.2c2.2,0.3,4.4,0.5,6.6,0.8c1.3,0.2,2.3,0.5,2.9,1.8c0.1,0.3,0.2,0.6,0.3,0.9C222.7,12.7,222.6,13.2,222.2,13.9
			L222.2,13.9L222.2,13.9L222.2,13.9z"/>
		<path fill-rule="evenodd" clip-rule="evenodd" fill="#DF2D3E" d="M341,72.2l0,0.1c-0.4,2.5-2.4,2.5-4.4,2.8
			c-1.9,0.2-3.8,0.4-5.7,0.7c-1,0.3-1.8,1.1-2,2.1l-0.1,0.7c0,0.8-0.3,1.6,0.4,2.4c0.5,0.5,1,0.4,1.6,0.4h0.8c3,0,6,0,9,0
			c5.9,0,11.9,0,17.9,0c6,0,11.9,0,17.9,0c3,0,9,0,12,0c1,0,2.1,0,3.1,0c0.5,0,1,0,1.5,0h0.8c1.1,0,2.6,0.5,3.1-1.1
			c0.3-1,0.5-2.1,0.8-3.1c0.5-2.1,1-4.2,1.4-6.3c0.2-1.1,0.5-2.1,0.6-3.2c0.1-0.5,0.6-2.6,0.3-3.2c-0.2-0.5-0.7-0.9-1.4-0.8
			c-0.9,0-1.2,0.4-1.6,1c-0.5,0.6-0.9,1.3-1.4,1.8c-1.5,1.7-3.1,3.2-4.9,4.6c-3.1,2.3-9.3,3.9-13.2,4.6c-3.9,0.7-7.5,0.5-11.3-0.2
			c-2.8-0.5-4.8-1.5-5.7-4.3c-0.4-1.2-0.4-2.3-0.5-3.5c-0.6-7.3-1-14.6-1-21.9c0-1.7-0.5-3.8,1.5-5c0.9-0.5,1.8-0.4,2.8-0.4
			c0.9,0,1.9,0,2.8,0c3.8,0,7.6-0.1,11.3,0c2.7,0.4,2.6,2.8,2.8,4.7c0.1,0.6,0.2,1.2,0.2,1.8c0.1,1.2,0.2,2.9,1.5,3.8
			c0.8,0.6,2.7,0.8,3.7,0.5c0.9-0.3,1.1-1.1,1.1-1.9c-0.1-2,0-4,0-6c0-4,0-8,0-12c0-1,0-2,0-3c0-0.8,0-2.2-0.9-2.8
			c-0.9-0.6-1.6-0.4-2.5-0.2c-0.4,0-0.8,0.2-1.2,0.4c-0.8,0.4-1,1-1.2,1.9c-0.1,0.6-0.2,1.2-0.3,1.8c-0.1,0.9-0.2,1.8-0.3,2.7
			c-0.1,1.6-0.6,3.2-2.5,3.6c-1,0.2-2,0.1-3,0.1c-3.6,0-7.1,0-10.7,0c-0.9,0-1.7,0.1-2.6-0.1c-1-0.2-1.6-0.7-2-1.6
			c-0.4-0.8-0.3-1.7-0.3-2.6c0-0.8,0.1-1.7,0.1-2.6c0.1-3.4,0.3-6.9,0.6-10.3c0.1-0.9,0.1-1.7,0.2-2.5c0.2-2.7,0.1-5.1,3.1-6.8
			c2.7-1.5,7.5-1.8,10.4-1.7c3.7,0.1,9.6,0.8,12.8,2.5c2,1.1,3.8,2.4,5.5,3.8c0.5,0.4,1,0.8,1.4,1.2c0.5,0.5,0.8,1,1.4,1.3
			c0.4,0.3,0.7,0.3,1.2,0.2c1.3-0.3,1.1-1.2,1.1-2.2c0-0.3,0-0.6,0-0.9c0-0.6,0-1.1,0-1.7c0-1.2,0-2.3,0-3.5c0-0.6,0-1.1,0-1.7
			c0-1,0.2-2,0-3c-0.3-1.6-1.6-1.2-2.8-1.2c-0.3,0-0.6,0-0.9,0c-0.6,0-1.2,0-1.8,0c-6.7,0-16,0-22.7,0c-6.7,0-13.4,0-20.1,0
			c-3.1,0-6.2,0-9.3,0c-1.6,0-3.1,0-4.7,0c-0.8,0-1.5,0-2.3,0c-0.4,0-0.8,0-1.2,0c-0.9,0-1.7-0.2-2.3,0.7c-0.6,0.9-0.2,3.1,0.5,3.9
			c1.1,1.3,2.5,1.1,3.9,1.2c1.4,0.2,2.8,0.4,4.2,0.5c1.5,0.1,2.9,0.7,3.3,2.3c0.3,1,0.2,1.9,0.3,2.9c0.5,6.4,0.9,12.9,1,19.3
			c0.3,13-0.1,25.8-1.2,38.7L341,72.2L341,72.2z"/>
		<path fill-rule="evenodd" clip-rule="evenodd" fill="#DF2D3E" d="M413.3,81.5c0.9,0,1.7,0,2.6,0c11.9,0,23.7,0,35.6,0
			c3,0,9,0,11.9,0c1.2,0,2.4,0,3.6,0c0.6,0,1.2,0,1.8,0c1.2,0,2.3,0.1,3.5-0.2c1.9-0.5,1.9-1.9,2.3-3.4c0.1-0.5,0.2-0.9,0.3-1.4
			c0.2-0.9,0.4-1.8,0.7-2.8c0.6-2.8,1.3-5.6,1.7-8.4c0-0.7-0.5-1.3-1.2-1.5c-0.4-0.1-0.7-0.1-1.1,0.1l-0.5,0.3
			c-0.7,0.7-1.1,1.5-1.7,2.2c-0.7,0.9-1.5,1.7-2.3,2.5c-1.7,1.6-3.5,2.9-5.5,4c-4.3,2.4-11.4,3.4-16.3,3.3c-2.3,0-4-0.3-5.6-2.2
			c-1.2-1.4-1.3-2.9-1.5-4.6c-0.1-0.5-0.1-1.1-0.2-1.7c-0.1-1.1-0.2-2.2-0.3-3.4c-0.3-3.3-0.5-6.6-0.6-10c-0.3-6.6-0.4-13.3-0.2-20
			c0.2-6.7,0.5-13.3,1.2-20c0-0.6,0.1-1.2,0.2-1.8c0.1-1.4,0.2-2.5,1.8-3.2c0.7-0.4,3.6-0.6,4.4-0.7c2-0.2,4.7-0.2,5-2.9
			c0.1-1.2,0.3-2.9-1.5-3c-1.7,0-3.4,0-5.1,0c-11,0-22,0-33,0c-0.9,0-1.8,0-2.7,0c-0.6,0-1.1,0-1.5,0.5c-0.6,0.6-0.5,2.3-0.3,2.9
			c0.5,2.2,2.7,2.3,4.5,2.5c1.1,0.1,2.2,0.2,3.3,0.4c3.3,0.4,3.1,2.7,3.5,5.2c0.1,1,0.2,2,0.4,3c0.2,2,0.4,4,0.6,6
			c0.9,10.7,1.1,21.2,0.4,31.9c-0.3,5.3-0.8,10.6-1.5,15.9c-0.1,0.8-0.1,1.6-0.4,2.4l-0.2,0.6c-0.8,1.4-2,1.6-3.4,1.7
			c-2.4,0.2-3.7,0.9-3.8,3.4C411.8,80,411.8,81.4,413.3,81.5L413.3,81.5L413.3,81.5z"/>
		<path fill-rule="evenodd" clip-rule="evenodd" fill="#DF2D3E" d="M98.1,81.5c0.9,0,1.7,0,2.6,0c11.9,0,23.7,0,35.6,0
			c3,0,8.5,0,11.5,0c1.2,0,2.4,0,3.6,0c0.6,0,1.2,0,1.8,0c1.2,0,2.3,0.1,3.5-0.2c1.9-0.5,2-1.9,2.3-3.4c0.1-0.5,0.2-0.9,0.3-1.4
			c0.2-0.9,0.4-1.8,0.7-2.8c0.6-2.8,1.3-5.6,1.7-8.4c0-0.7-0.5-1.3-1.2-1.5c-0.4-0.1-0.7-0.1-1,0.1l-0.5,0.3
			c-0.7,0.7-1.1,1.5-1.7,2.2c-0.7,0.9-1.5,1.7-2.3,2.5c-1.7,1.6-3.4,2.9-5.5,4c-4.2,2.4-11,3.4-15.8,3.3c-2.3,0-4.1-0.3-5.6-2.2
			c-1.2-1.4-1.3-2.9-1.5-4.6c0-0.5-0.1-1.1-0.2-1.7c-0.1-1.1-0.2-2.2-0.3-3.4c-0.3-3.3-0.5-6.6-0.6-10c-0.3-6.6-0.4-13.3-0.3-20
			c0.2-6.7,0.6-13.3,1.2-19.9c0.1-0.6,0.1-1.2,0.2-1.8c0.1-1.4,0.2-2.5,1.7-3.2c0.8-0.4,3.6-0.6,4.4-0.7c2-0.2,4.6-0.2,5-2.9
			c0.1-1.2,0.2-2.9-1.5-3c-1.7,0-3.4,0-5.1,0c-11,0-22,0-33,0c-0.9,0-1.8,0-2.7,0c-0.6,0-1.1,0-1.6,0.5c-0.6,0.6-0.5,2.3-0.3,2.9
			c0.6,2.2,2.7,2.3,4.5,2.5c1.1,0.1,2.2,0.2,3.3,0.4c3.3,0.4,3.1,2.7,3.5,5.2c0.1,1,0.2,2,0.4,3c0.2,2,0.4,4,0.6,6
			c0.9,10.7,1,21.2,0.4,31.9c-0.3,5.3-0.8,10.6-1.5,15.9c-0.1,0.8-0.1,1.6-0.4,2.4l-0.2,0.6c-0.8,1.4-1.9,1.6-3.4,1.7
			c-2.4,0.2-3.7,0.9-3.8,3.4C96.6,80,96.6,81.4,98.1,81.5L98.1,81.5L98.1,81.5z"/>
		<path fill-rule="evenodd" clip-rule="evenodd" fill="#DF2D3E" d="M258,42.1c0.3-12.9,7.8-26.2,21.4-31.3
			c6.8-2.5,13.8-2.5,20.6,0.1c3.4,1.3,6.2,3,8.8,5.3c2.6,2.3,0.3,0.3,2.6,2.7l0.4,0.4c0.3,0.3,0.7,0.4,1.2,0.3c0.7-0.1,1-0.4,1.3-1
			c0.2-0.6,0-1,0-1.5c-0.2-1.1-0.3-2.1-0.5-3.1c-0.4-2-0.7-3.5-1.2-5.5c-0.4-2-1.6-2.4-3.8-3c-4.1-1.2-7-1.8-11.2-2.3
			c-7.9-0.8-15.4-0.5-23.1,1.2c-18.8,4.1-38,17.3-38,37.8c0,20.4,19.2,33.6,38,37.8c7.7,1.7,15.2,2.1,23.2,1.2
			c2.4-0.2,4.6-0.6,6.9-1.1c2.2-0.5,4.4-1,6.5-1.6c0.5-0.2,1.1-0.3,1.6-0.5c2.2-0.8,2.3-1.6,2.8-3.4c0.3-1,0.5-2,0.8-3.1
			c0.5-2,0.9-4.1,1.2-6.2c0.2-1,0.4-2.1,0.5-3.1c0.1-0.5,0.2-1,0-1.5c-0.2-0.6-0.6-0.9-1.3-1c-0.5-0.1-0.9,0-1.2,0.3l-0.4,0.4
			c-3.3,5.8-8.3,10.7-15,13.2c-6.6,2.5-14,2.5-20.6,0C265.8,68.3,258.4,55,258,42.1L258,42.1L258,42.1z"/>
		<path fill-rule="evenodd" clip-rule="evenodd" fill="#DF2D3E" d="M72.7,5.3C64.8,3.1,57,2.3,48.8,2.9C32.6,4,15.3,10.1,6,23.2
			C-3.7,37-1.2,53.8,10.4,65.8C21.7,77.4,39.3,82,55.7,81.4l0,0l0,0c4.3-0.1,8.4-0.6,12.6-1.4c2.1-0.4,4.1-0.9,6.2-1.5
			c4.5-1.5,8-4.5,8-9.6c0-3,0-4.2,0-5.5c0-4.1,0-7.7,0-11.6c0-0.9,0.9-1.8,1.7-2.3c1-0.6,2.1-0.5,3.2-0.7c2.6-0.4,3.4-1.5,3.3-3.8
			c-0.1-1.4-0.8-1.9-2.2-1.9h-0.6c-0.8,0-1.6,0-2.4,0c-1.6,0-3.3,0-4.9,0c-3.3,0-6.6,0-9.8,0c-4.4,0-8.9,0-13.3,0
			c-2.2,0-4.4,0-6.7,0c-0.3,0-0.6,0-0.8,0c-0.6,0-1.2-0.1-1.7,0.4c-0.8,0.8-0.5,1.5-0.5,2.4l0.1,0.7c0.6,1.7,1.9,2,3.5,2.2
			c2.1,0.3,4.2,0.5,6.2,0.7c2.8,0.3,3.7,1.5,3.7,4c0,5.4,0,9.1,0,14.4c0,5.9-5,6.9-9.7,7c-1.3,0-2.5-0.2-3.8-0.4
			c-5.2-0.9-9.3-2.8-13.4-5.9c-16.2-12.3-17.8-33.7-5.1-48.5c3.8-4.4,8-7.4,13.8-9.5c4.3-1.5,8.4-2.1,13-1.6
			c6.8,0.7,12.8,3.5,17.5,8c1.1,0.9-0.3-0.2,1.7,1.8l0.4,0.4c0.3,0.3,0.7,0.4,1.2,0.3c0.7-0.1,1-0.4,1.3-1c0.2-0.6,0-1,0-1.5
			c-0.2-1.1-0.3-2.1-0.5-3.1c-0.3-2-0.7-3.5-1.2-5.5C76,6.4,74.9,6,72.7,5.3L72.7,5.3z"/>
	</g>
	<g>
		<path fill="#DF2D3E" d="M585.3,11.8c0-2.2,0-4.4,0-6.5c0-0.7-0.4-2.5-0.4-3.3c-0.4-1.1-1.5-1.8-2.5-1.8
			c-24.7-0.4-49.7-0.4-74.4,0.7c-1.1,0-2.2,0.7-2.5,1.8c0,0.4,0,2.5,0,2.9c-0.4,2.2-0.4,4.3-0.4,6.5c0,4.4,0,8.7,0.4,13.1
			c0,9.4,0,16.3,3.6,25.4c2.9,8.3,8,15.6,14.1,21.4c3.3,2.9,6.9,5.4,10.9,7.6c1.8,1.1,3.6,2.2,5.8,2.9c0.7,0.4,4.7,1.8,5.8,1.8
			c1.1,0.4,5.1-1.4,5.8-1.8c2.2-0.7,4-1.8,5.8-2.9c4-2.2,7.3-4.7,10.5-8c6.2-5.8,11.3-13.4,14.2-21.4c3.3-9.4,3.3-16,3.6-25.8
			C585.6,20.2,585.6,15.8,585.3,11.8L585.3,11.8z M525.4,45.6c-1.1,0.7-1.5,2.2-3.3,1.8c-1.4-0.4-1.8-1.5-2.2-2.9
			c-0.4-1.1-0.7-2.2-0.7-3.6c-0.7-2.2-1.1-4.7-1.1-7.3c-0.4-5.1-0.4-9.8-0.4-14.9c-0.4-0.7-0.4-2.9,0-3.6c0.4-1.4,1.5-2.2,2.9-2.2
			c2.5,0,5.1,0,7.3-0.4c5.1,0,10.2,0,15.2,0c2.2,0,4.7,0,7.3,0c0.7,0,2.9-0.4,3.6,0.4c1.1,0.7,1.1,2.5,0,3.3l-20.7,21.4
			c-1.8,1.8-3.6,3.6-5.4,5.4C527.2,43.8,526.1,44.5,525.4,45.6L525.4,45.6z M572.9,24.9c0,2.9,0,5.8-0.4,8.7
			c-0.4,6.2-1.8,12-4.4,17.4c-2.9,5.4-6.5,9.8-11.2,13.8c-2.2,1.8-4.7,3.6-7.3,5.1c-4.4,2.2-4.4,1.8-8.3-0.4
			c-2.5-1.5-5.1-2.9-7.6-4.7c-1.1-1.1-2.2-1.8-3.3-2.9c-0.4-0.7-0.7-1.5-0.4-2.2c0.4-1.1,0.7-1.5,1.4-1.8c4-4.4,8.4-8.7,12.4-12.7
			l25.4-25.8c1.1-1.1,2.9-0.7,3.6,1.1C573.3,20.9,572.9,24.2,572.9,24.9z"/>
	</g>
	<g>
		<path fill="#515457" d="M131.5,126c-0.1,4.4,3.2,5.7,7.3,5.7c2.3,0,5.9-1.2,5.9-4.3c0-2.4-2.5-3.3-4.6-3.8l-5-1.2
			c-2.6-0.6-5-1.8-5-5.1c0-2.1,1.4-6,7.7-6c4.4,0,8.3,2.3,8.2,6.6h-2.1c-0.1-3.2-2.9-4.9-6.1-4.9c-2.9,0-5.6,1.1-5.6,4.2
			c0,2,1.6,2.8,3.4,3.2l5.4,1.3c3.1,0.8,5.8,2.1,5.8,5.6c0,1.4-0.6,6-8.5,6c-5.3,0-9.1-2.3-8.9-7.4H131.5z"/>
		<path fill="#515457" d="M160,111.8h2.3l5.1,18.5h0.1l5.4-18.5h2.6l5.5,18.5h0.1l5.1-18.5h2.1l-6.1,21.1h-2.2l-5.6-18.9h-0.1
			l-5.6,18.9h-2.3L160,111.8z"/>
		<path fill="#515457" d="M202.9,111.8h2.1v21.1h-2.1V111.8z"/>
		<path fill="#515457" d="M219.4,111.8H237v1.7h-7.8v19.4h-2.1v-19.4h-7.8V111.8z"/>
		<path fill="#515457" d="M250.1,111.8h16v1.8l-14.6,17.7h15v1.7h-17.3v-1.8l14.7-17.7h-13.7V111.8z"/>
		<path fill="#515457" d="M281.3,111.8h15.4v1.7h-13.2v7.6h12.4v1.7h-12.4v8.3h13.4v1.7h-15.5V111.8z"/>
		<path fill="#515457" d="M311.9,111.8h10.2c3.7,0,6.8,1.7,6.8,5.5c0,2.7-1.5,4.9-4.3,5.4v0.1c2.9,0.4,3.7,2.3,3.9,4.8
			c0.1,1.5,0.1,4.4,1,5.4h-2.3c-0.5-0.8-0.5-2.4-0.6-3.3c-0.2-3-0.4-6.3-4.5-6.1h-8v9.4h-2.1V111.8z M314,121.8h7.9
			c2.6,0,4.8-1.5,4.8-4.1c0-2.6-1.6-4.2-4.8-4.2H314V121.8z"/>
		<path fill="#515457" d="M344.8,111.8h2.1v19.4h12.5v1.7h-14.6V111.8z"/>
		<path fill="#515457" d="M380.2,111.8h2.4l8.7,21.1H389l-2.7-6.6h-10.1l-2.7,6.6h-2.3L380.2,111.8z M376.8,124.6h8.8l-4.3-10.8
			L376.8,124.6z"/>
		<path fill="#515457" d="M405.4,111.8h2.4l13,17.9h0.1v-17.9h2.1v21.1h-2.4l-13-17.9h-0.1v17.9h-2.1V111.8z"/>
		<path fill="#515457" d="M439.6,111.8h7.7c6.7,0.1,10.2,3.6,10.2,10.6c0,6.9-3.5,10.4-10.2,10.6h-7.7V111.8z M441.7,131.2h4.5
			c6.4,0,9.2-2.5,9.2-8.9s-2.8-8.9-9.2-8.9h-4.5V131.2z"/>
	</g>
</g>
</svg>
